<?xml version="1.0" standalone="no"?>
<!DOCTYPE svg PUBLIC "-//W3C//DTD SVG 1.1//EN" "http://www.w3.org/Graphics/SVG/1.1/DTD/svg11.dtd" >
<svg xmlns="http://www.w3.org/2000/svg">
<metadata>
This is a custom SVG webfont generated by Font Squirrel.
Copyright   : Copyright c 20082011 by Vasilii Biryukov All rights reserved
Designer    : Vasilii Biryukov
Foundry     : Vasilii Biryukov
</metadata>
<defs>
<font id="ChiftTextRegular" horiz-adv-x="1384" >
<font-face units-per-em="2048" ascent="1638" descent="-410" />
<missing-glyph horiz-adv-x="475" />
<glyph unicode=" "  horiz-adv-x="475" />
<glyph unicode="&#x09;" horiz-adv-x="475" />
<glyph unicode="&#xa0;" horiz-adv-x="475" />
<glyph unicode="!" horiz-adv-x="563" d="M248 1370q31 20 102.5 20.5t110.5 -20.5l-70 -1077h-82zM250 98q0 45 27.5 76t74.5 31q43 0 71 -31t28 -76q0 -49 -28 -79.5t-71 -30.5q-47 0 -74.5 30.5t-27.5 79.5z" />
<glyph unicode="&#x22;" horiz-adv-x="387" d="M8 1352h152l-45 -375h-74zM236 1352h151l-43 -375h-74z" />
<glyph unicode="#" horiz-adv-x="1056" d="M23 397l24 125h195l63 348h-194l26 125h193l59 324h82l-55 -324h280l60 324h80l-56 -324h201l-25 -125h-196l-64 -348h197l-27 -125h-190l-68 -397h-96l72 397h-275l-67 -397h-95l72 397h-196zM332 522h276l64 348h-279z" />
<glyph unicode="$" horiz-adv-x="989" d="M92 106v293h70l49 -194q109 -129 260 -129q98 0 178 58.5t80 139.5q0 80 -50 140.5t-233 175.5q-160 102 -251 196.5t-91 208.5q0 137 97.5 223.5t265.5 100.5v156l98 18v-170q176 -14 289 -98l18 -23q-2 -49 -10 -103.5t-16 -82.5l-6 -31h-64q-18 152 -55 182 q-61 57 -184 58q-113 0 -187 -55.5t-74 -141.5q0 -70 58.5 -133.5t220.5 -161.5q211 -131 277.5 -212t66.5 -183q0 -113 -97 -219.5t-249 -134.5v-211l-100 -19v221q-215 0 -349 119z" />
<glyph unicode="%" horiz-adv-x="1257" d="M-16 1178q0 145 91 229t218 84q150 0 234.5 -81t84.5 -218q0 -154 -86 -236t-219 -82q-152 0 -237.5 80.5t-85.5 223.5zM43 41l903 1360l86 -45l-903 -1370zM123 1194q0 -109 48 -179.5t134 -70.5q168 0 168 230q0 115 -48 180t-134 65q-168 0 -168 -225zM571 344 q0 145 92.5 228t217.5 83q150 0 234.5 -79.5t84.5 -217.5q0 -154 -86 -236.5t-219 -82.5q-152 0 -238 81t-86 224zM711 360q0 -111 48 -181t134 -70q168 0 168 231q0 113 -48 178.5t-134 65.5q-168 -1 -168 -224z" />
<glyph unicode="&#x26;" horiz-adv-x="1226" d="M98 317q0 160 109 297l108 105q-135 182 -135 340q0 137 76 239.5t219 102.5q68 0 111 -15q94 -27 139 -94t45 -159q0 -145 -123 -259l-22 -10q57 -12 145 -12q174 0 289 117l43 -37q-29 -96 -97.5 -151.5t-170.5 -55.5q-150 0 -312 96l-30 -14l-39 55q176 104 176 268 q0 70 -40 120t-114 50q-80 0 -120 -68.5t-40 -146.5q0 -31 7.5 -61.5t14.5 -54t28 -58.5l32 -54q12 -19 47 -61l50 -61q14 -18 62 -71.5l67 -75.5q420 -489 596 -545v-55h-78q-115 0 -188.5 35.5t-190.5 156.5q-4 -8 -18.5 -27.5t-20.5 -25.5t-18.5 -22.5t-18.5 -23.5 l-18 -21q-12 -13 -20.5 -20t-21 -15.5t-23.5 -14.5t-25.5 -12t-26.5 -10q-43 -12 -100 -13q-147 0 -250 93t-103 249zM270 365q0 -121 54.5 -193t167.5 -72q100 0 206 152l-241 293l-99 121q-66 -98 -82 -222q-6 -38 -6 -79z" />
<glyph unicode="'" horiz-adv-x="167" d="M8 1352h152l-45 -375h-74z" />
<glyph unicode="(" horiz-adv-x="743" d="M188 528q0 309 146.5 563.5t355.5 362.5l47 -63q-377 -260 -377 -863q0 -281 103.5 -510t279.5 -376l-53 -54q-209 121 -355.5 372t-146.5 568z" />
<glyph unicode=")" horiz-adv-x="749" d="M129 -358q174 147 278.5 376.5t104.5 509.5q0 602 -377 863l47 63q209 -109 355.5 -362.5t146.5 -563.5q0 -317 -146.5 -568t-355.5 -372z" />
<glyph unicode="*" horiz-adv-x="667" d="M4 975l248 90l-248 86q-8 37 22.5 93t63.5 61l205 -170l-49 262q18 23 86.5 22.5t91.5 -22.5l-51 -262l205 170q33 -4 65.5 -63.5t22.5 -90.5l-250 -86l250 -90q8 -37 -24 -92.5t-67 -61.5l-202 176l51 -264q-18 -25 -90 -23.5t-88 23.5l49 264l-201 -176 q-33 6 -66.5 64.5t-23.5 89.5z" />
<glyph unicode="+" horiz-adv-x="894" d="M49 559v119h324v328h131v-328h332v-119h-332v-338h-131v338h-324z" />
<glyph unicode="," horiz-adv-x="321" d="M66 133q0 45 32.5 71.5t79.5 26.5q131 0 131 -163q0 -94 -59.5 -184.5t-155.5 -147.5l-28 41q88 94 88 178q0 23 -15 47q-8 12 -28.5 33.5t-32.5 44t-12 53.5z" />
<glyph unicode="-" horiz-adv-x="606" d="M31 528v119h547v-119h-547z" />
<glyph unicode="." horiz-adv-x="544" d="M160 113q0 53 31.5 86.5t82.5 33.5q49 0 81 -33.5t32 -86.5t-31.5 -89t-81.5 -36q-51 0 -82.5 36t-31.5 89z" />
<glyph unicode="/" horiz-adv-x="704" d="M33 -496l489 2012h135l-485 -2012h-139z" />
<glyph unicode="0" horiz-adv-x="1060" d="M98 643q0 303 113 490.5t324 187.5q428 0 428 -662q0 -313 -102.5 -492t-325.5 -179q-437 0 -437 655zM262 662q0 -135 12.5 -233.5t42 -179.5t86 -121t140.5 -40q258 0 258 551q0 307 -60.5 445.5t-210.5 138.5q-268 0 -268 -561z" />
<glyph unicode="1" horiz-adv-x="737" d="M31 1108q215 74 381 203h61v-1184q70 -51 197 -59v-68h-541v68q121 6 195 59v981q-123 -41 -275 -59z" />
<glyph unicode="2" horiz-adv-x="901" d="M59 76l179 218l148 181l104 136q58 79 81 126t40.5 105.5t17.5 120.5q0 131 -66.5 192.5t-169.5 61.5q-86 0 -162 -54l-41 -250h-67l-25 281l102 66q30 18 98.5 39.5t145.5 21.5q147 0 247 -85t100 -249q0 -78 -21.5 -152.5t-49.5 -132t-90.5 -135.5t-106.5 -128 l-134 -147l-147 -159h413q18 29 41 86t37 103l15 43l75 -19l-51 -346h-698z" />
<glyph unicode="3" horiz-adv-x="946" d="M96 39v307h64l65 -237q63 -39 156 -39q137 0 213 83t76 230q0 121 -72 187.5t-195 66.5l-110 -8v94q137 39 225 115.5t88 189.5q0 188 -209 189q-94 0 -168 -54l-41 -207h-61l-21 232q88 72 166 102.5t177 30.5q150 0 233.5 -72.5t83.5 -208.5q0 -125 -72.5 -195.5 t-191.5 -119.5q139 -14 234 -96t95 -232q0 -213 -134 -311t-328 -98q-104 0 -244 35z" />
<glyph unicode="4" horiz-adv-x="1024" d="M31 436l631 885h88v-895h190v-100h-190v-326h-156v326h-561zM164 418h430v530l6 105z" />
<glyph unicode="5" horiz-adv-x="884" d="M80 39v307h63q37 -172 54 -233q84 -45 168 -41q117 4 196.5 89t79.5 242q0 61 -11.5 110.5t-44 95.5t-91 69.5t-147.5 36t-214 -9.5v606h635v-137h-510v-375q104 23 191 16q176 -14 267 -119.5t91 -267.5q0 -203 -126 -321.5t-321 -118.5q-123 0 -260 37z" />
<glyph unicode="6" horiz-adv-x="966" d="M98 461q0 336 179.5 568.5t494.5 305.5l37 -82q-268 -88 -407.5 -283.5t-139.5 -451.5q0 -430 244 -430q109 0 164 85t55 243q0 147 -96 213q-45 31 -101 30q-45 0 -94 -14t-74 -24l-26 -15l-23 58l125 77q63 23 137 23q141 0 228.5 -96.5t87.5 -257.5 q0 -209 -118 -315.5t-275 -106.5q-398 0 -398 473z" />
<glyph unicode="7" horiz-adv-x="745" d="M20 999l21 312h655v-64l-67 -160q-223 -557 -283 -1087h-141q35 250 88 449.5t100 324.5t137 336q18 43 29 64h-375q-25 -18 -49 -62.5t-35 -79.5l-8 -33h-72z" />
<glyph unicode="8" horiz-adv-x="1003" d="M98 313q0 123 63.5 205t203.5 176q-203 135 -203 320q0 127 98 217t248 90q154 0 244 -81t90 -208q0 -100 -56.5 -172t-162.5 -145q145 -84 213.5 -165t68.5 -198q0 -141 -104.5 -252.5t-300.5 -111.5q-178 0 -290 87.5t-112 237.5zM236 322q0 -88 70.5 -161t193.5 -73 q115 0 184.5 65.5t69.5 176.5q0 84 -74 157.5t-250 165.5q-115 -90 -154.5 -168.5t-39.5 -162.5zM307 1012q0 -78 60.5 -132.5t193.5 -123.5q141 137 141 286q0 82 -50 131.5t-144 49.5q-82 0 -141.5 -61.5t-59.5 -149.5z" />
<glyph unicode="9" horiz-adv-x="966" d="M80 920q0 203 111.5 302t254.5 99q82 0 152 -22.5t133.5 -77t100 -160t36.5 -254.5q0 -182 -48 -323.5t-139 -236.5t-205 -156.5t-265 -104.5l-25 92q270 115 394.5 277.5t124.5 451.5q0 213 -66 314.5t-178 101.5q-104 0 -161.5 -80t-57.5 -211q0 -133 55 -200.5 t141 -67.5q47 0 95.5 14t74.5 24l25 15l22 -58l-125 -77q-63 -23 -137 -23q-119 0 -216 97.5t-97 263.5z" />
<glyph unicode=":" horiz-adv-x="495" d="M238 113q0 53 31.5 86.5t84.5 33.5q49 0 81 -33.5t32 -86.5t-32 -89t-81 -36q-53 0 -84.5 36t-31.5 89zM238 895q0 53 31.5 88t84.5 35q49 0 81 -35t32 -88t-32 -89t-81 -36q-53 0 -84.5 36t-31.5 89z" />
<glyph unicode=";" horiz-adv-x="518" d="M219 895q0 37 12 63q31 59 103 60q33 0 59 -17q53 -35 53 -106q0 -53 -31.5 -89t-80.5 -36q-51 0 -83 36t-32 89zM244 133q0 45 32.5 71.5t81.5 26.5q131 0 131 -163q0 -94 -60 -184.5t-157 -147.5l-28 41q88 94 88 178q0 35 -44 84t-44 94z" />
<glyph unicode="&#x3c;" horiz-adv-x="675" d="M20 502v47l527 375l82 -103l-449 -295l449 -282l-82 -115z" />
<glyph unicode="=" horiz-adv-x="882" d="M49 309v115h787v-115h-787zM49 571v115h787v-115h-787z" />
<glyph unicode="&#x3e;" horiz-adv-x="673" d="M45 244l451 282l-451 295l84 103l526 -375v-47l-526 -373z" />
<glyph unicode="?" horiz-adv-x="835" d="M160 1274l8 26q12 10 35.5 25.5t98.5 40.5t155 25q150 0 247 -80t97 -240q0 -27 -4 -65q-12 -76 -53.5 -148t-90.5 -124t-98 -99t-82 -89t-33 -75l15 -96l-64 -51q-49 102 -49 243q0 53 30.5 107.5t62.5 88.5t95.5 91t83.5 78q86 92 86 166q0 86 -65.5 130t-145.5 44 q-141 0 -186 -47q-35 -37 -45 -185h-53q-29 89 -45 234zM350 98q0 45 28 76t73 31t72.5 -31t27.5 -76q0 -49 -27.5 -79.5t-72.5 -30.5t-73 30.5t-28 79.5z" />
<glyph unicode="@" horiz-adv-x="1714" d="M98 537q0 334 240 557t573 223q309 0 507 -188.5t198 -428.5q0 -264 -163 -435t-429 -171q-55 0 -72.5 39t-3.5 139l-184 -153q-70 -37 -141.5 -37t-113.5 58.5t-42 170.5q0 160 65.5 314.5t185.5 259t257 104.5q133 0 233 -28l-112 -541q-37 -186 -19 -217 q174 2 296 138t122 323q0 229 -165 385.5t-433 156.5q-94 0 -188.5 -27.5t-181.5 -85t-153.5 -136t-105.5 -190.5t-39 -239q0 -166 60.5 -303t157 -220t207 -127t223.5 -44q170 0 313 60l35 -101q-137 -68 -346 -67q-135 0 -269.5 51t-251 146t-188.5 255t-72 359zM621 299 q0 -104 77 -104q100 33 256 188l101 479q-47 20 -72 27.5t-68 5.5t-71 -29q-115 -113 -169 -276.5t-54 -290.5z" />
<glyph unicode="A" horiz-adv-x="1169" d="M-10 0v72q74 0 149 63l430 1278h76l385 -1278q76 -63 150 -63v-72h-463v72q96 12 145 63l-102 334h-406l-106 -334q59 -53 141 -63v-72h-399zM383 567h344l-162 586l-20 -106z" />
<glyph unicode="B" horiz-adv-x="1150" d="M80 0v72q74 0 149 63v1120q-76 63 -149 64v72h158q35 0 138 9t159 9q225 0 335.5 -93t110.5 -257q0 -63 -35 -131t-90 -109q-49 -37 -139 -67q76 -8 137 -39q86 -39 142.5 -121t56.5 -176q0 -184 -117 -300t-342 -116h-514zM395 129q78 -37 176 -37q137 0 220 88t83 203 q0 133 -72.5 212t-226.5 79q-119 0 -180 -15v-530zM395 748l121 14q295 39 295 264q0 131 -76 207t-203 76q-41 0 -137 -21v-540z" />
<glyph unicode="C" horiz-adv-x="1148" d="M98 680q0 328 172 525.5t435 197.5q219 0 321 -49l18 -25q1 -10 1 -24q0 -46 -11 -125q-14 -102 -33 -150h-61q-25 176 -49 213q-16 27 -74.5 43.5t-126.5 16.5q-193 0 -302 -152t-109 -434q0 -279 108.5 -447t310.5 -168q156 0 349 129l34 -65l-141 -113 q-94 -78 -319 -78q-244 0 -383.5 186.5t-139.5 518.5z" />
<glyph unicode="D" horiz-adv-x="1296" d="M80 0v72q74 0 149 63v1122q-74 61 -149 62v72h229l295 10q266 0 430 -167t164 -515q0 -332 -157.5 -525.5t-446.5 -193.5h-514zM395 129q61 -31 176 -31q209 0 329 157t120 452q0 293 -126 443t-325 150q-88 0 -174 -14v-1157z" />
<glyph unicode="E" horiz-adv-x="1093" d="M80 0v72q74 0 149 63v1122q-74 61 -149 62v72h872v-336h-80q0 55 -16 126.5t-45 108.5h-416v-528h299q35 39 54 156h79v-414h-79q-16 121 -54 158h-299v-533q61 -31 197 -31h215q72 78 119 238h80l-58 -336h-868z" />
<glyph unicode="F" horiz-adv-x="1036" d="M80 0v72q74 0 149 63v1122q-74 61 -149 62v72h887v-336h-78q0 55 -16.5 126.5t-45.5 108.5h-432v-528h320q37 39 53 156h80v-414h-80q-14 121 -53 158h-320v-527q76 -63 150 -63v-72h-465z" />
<glyph unicode="G" horiz-adv-x="1245" d="M98 680q0 328 172 525.5t435 197.5q219 0 321 -49l18 -25q1 -10 1 -23q0 -45 -11 -119q-14 -95 -33 -145h-63q-23 168 -45 201q-16 27 -74.5 43.5t-128.5 16.5q-193 0 -302 -152t-109 -434q0 -279 108.5 -447t310.5 -168q80 0 199 31v387q-45 43 -129 53v80h418v-80 q-59 -8 -121 -53v-418l-102 -43q-199 -84 -342 -84q-244 0 -383.5 186.5t-139.5 518.5z" />
<glyph unicode="H" d="M80 0v72q74 0 149 63v1122q-74 61 -149 62v72h465v-72q-74 0 -150 -64v-493h594v493q-76 63 -149 64v72h465v-72q-76 0 -148 -62v-1122q74 -63 148 -63v-72h-465v72q74 0 149 63v527h-594v-527q76 -63 150 -63v-72h-465z" />
<glyph unicode="I" horiz-adv-x="702" d="M119 0v72q74 0 149 63v1120q-76 63 -149 64v72h465v-72q-74 0 -150 -64v-1120q76 -63 150 -63v-72h-465z" />
<glyph unicode="J" horiz-adv-x="702" d="M59 -311q106 92 163 193.5t57 258.5v1114q-76 63 -150 64v72h465v-72q-74 0 -150 -64v-999q0 -172 -48 -302t-113.5 -198.5t-163.5 -132.5z" />
<glyph unicode="K" horiz-adv-x="1230" d="M80 0v72q74 0 149 63v1122q-74 61 -149 62v72h465v-72q-74 0 -150 -64v-1120q76 -63 150 -63v-72h-465zM442 682v33l439 542q-63 55 -142 62v72h412v-72l-141 -62l-396 -497l351 -481q72 -100 132 -153.5t134 -78.5v-59h-137q-76 0 -120 24.5t-81 73.5q-246 319 -416 573 z" />
<glyph unicode="L" horiz-adv-x="987" d="M80 0v72q74 0 149 63v1122q-74 61 -149 62v72h465v-72q-74 0 -150 -64v-1157h373q72 78 121 238h78l-58 -336h-829z" />
<glyph unicode="M" horiz-adv-x="1646" d="M70 0v72q74 0 149 63l41 1122q-76 63 -166 64v70h361v-35l372 -1045l396 1045v35h327v-72q-94 0 -170 -64l47 -1122q78 -61 150 -61v-72h-457v72q74 0 150 63l-47 789l20 184l-412 -1067l-16 -57h-47l-16 57l-418 1141l24 -176l-36 -871q76 -63 149 -63v-72h-401z" />
<glyph unicode="N" horiz-adv-x="1343" d="M80 0v72q74 0 149 63v1122q-74 61 -149 62v72h256l674 -992v858q-74 61 -150 62v72h406v-72q-76 0 -150 -62v-1257h-57l-49 92l-674 1000v-957q76 -63 149 -63v-72h-405z" />
<glyph unicode="O" horiz-adv-x="1400" d="M98 684q0 330 176.5 529.5t442.5 199.5q254 0 420 -189.5t166 -504.5q0 -354 -157 -549t-458 -195q-283 0 -436.5 189.5t-153.5 519.5zM279 721q0 -289 118.5 -467t321.5 -178q209 0 307 165t98 437q0 289 -116.5 462t-323.5 173q-195 0 -300 -167t-105 -425z" />
<glyph unicode="P" horiz-adv-x="1077" d="M80 0v72q74 0 149 63v1122q-74 61 -149 62v72h219l256 10q455 0 455 -395q0 -180 -114 -274.5t-298 -113.5l-203 -14v-469q76 -63 150 -63v-72h-465zM395 698l121 7q156 8 234.5 87.5t78.5 225.5q0 123 -66.5 202.5t-209.5 79.5q-94 0 -158 -14v-588z" />
<glyph unicode="Q" horiz-adv-x="1386" d="M98 684q0 330 176.5 529.5t442.5 199.5q254 0 420 -189.5t166 -504.5q0 -326 -132.5 -515.5t-386.5 -221.5l-227 -84q20 0 33 2q16 2 35 2q108 0 312 -59q194 -55 309 -55q27 0 50 3l21 -22q-37 -57 -131 -119q-35 -7 -74 -7q-49 0 -104 11q-100 20 -189.5 54t-231.5 58 q-88 15 -178 14q-55 0 -110 -5l-14 22q51 98 137 109l207 71q-82 6 -140 27q-190 59 -290.5 236.5t-100.5 443.5zM279 721q0 -289 118.5 -467t321.5 -178q209 0 307 165t98 437q0 289 -116.5 462t-323.5 173q-195 0 -300 -167t-105 -425z" />
<glyph unicode="R" horiz-adv-x="1185" d="M80 0v72q74 0 149 63v1122q-74 61 -149 62v72h219l256 10q227 0 341 -93.5t114 -269.5q0 -156 -88 -256t-236 -133q27 -18 72 -59l231 -408q61 -104 168 -131v-63h-131q-129 0 -192 98q-39 63 -141.5 247.5t-176.5 295.5l-121 -13v-481q76 -63 150 -63v-72h-465zM395 711 l121 14q313 37 313 283q0 141 -73.5 216.5t-202.5 75.5q-94 0 -158 -14v-575z" />
<glyph unicode="S" horiz-adv-x="987" d="M90 106v293h70l49 -194q109 -129 260 -129q98 0 178 66.5t80 150.5q0 106 -49 174t-234 180q-186 115 -264 201t-78 207q0 162 115 254t309 92q203 0 326 -98l18 -23q-2 -51 -10 -104.5t-14 -81.5l-8 -31h-64q-18 152 -55 182q-61 55 -184 55q-113 0 -187 -54t-74 -140 q0 -78 60.5 -147.5t218.5 -167.5q213 -133 278.5 -217.5t65.5 -213.5q0 -145 -124 -265t-314 -120q-113 0 -205 33t-129 68z" />
<glyph unicode="T" horiz-adv-x="1124" d="M49 1055v336h1026v-336h-80q0 55 -16 126.5t-45 108.5h-289v-1155q76 -63 150 -63v-72h-465v72q74 0 149 63v1155h-289q-29 -37 -45 -108.5t-16 -126.5h-80z" />
<glyph unicode="U" horiz-adv-x="1323" d="M59 1319v72h465v-72q-74 0 -149 -64v-790q0 -180 87 -284.5t249 -104.5q160 0 229.5 95t69.5 294v790q-76 63 -150 64v72h406v-72q-76 0 -150 -62v-792q0 -256 -99 -373t-310 -117q-498 0 -498 490v792q-74 62 -150 62z" />
<glyph unicode="V" horiz-adv-x="1259" d="M10 1319v72h479v-72q-70 0 -145 -64l350 -954l307 956q-74 61 -143 62v72h393v-72q-66 0 -139 -62l-397 -1216l-19 -57h-61l-17 57l-458 1216q-74 62 -150 62z" />
<glyph unicode="W" horiz-adv-x="1861" d="M10 1319v72h494v-72q-74 0 -146 -62l240 -892l12 -50l318 1076h63l326 -1026l6 -50l258 942q-74 61 -145 62v72h417v-72q-80 0 -153 -62l-367 -1269h-73l-334 1009l-312 -1009h-71l-371 1269q-74 62 -162 62z" />
<glyph unicode="X" horiz-adv-x="1302" d="M31 0v72q80 0 155 63l381 553l-340 569q-74 61 -168 62v72h510v-72q-70 0 -141 -62l248 -423l278 421q-76 63 -141 64v72h420v-72q-80 0 -156 -64l-346 -510l375 -610q76 -63 168 -63v-72h-510v72q68 0 143 63l-280 461l-318 -461q76 -63 142 -63v-72h-420z" />
<glyph unicode="Y" horiz-adv-x="1196" d="M20 1319v72h490v-72q-72 0 -145 -62l276 -546l289 546q-74 61 -148 62v72h406v-72q-70 0 -152 -62l-342 -671v-451q74 -63 148 -63v-72h-465v72q74 0 149 63v465l-348 657q-78 62 -158 62z" />
<glyph unicode="Z" horiz-adv-x="1021" d="M49 57l672 1233h-520q-31 -37 -46.5 -108.5t-15.5 -126.5h-80v336h844l27 -62l-660 -1231h504q72 78 119 238h80l-58 -336h-843z" />
<glyph unicode="[" horiz-adv-x="681" d="M180 -496v1887h512v-72l-362 -21v-1704l362 -20v-70h-512z" />
<glyph unicode="\" horiz-adv-x="745" d="M33 1516h133l491 -2012h-141z" />
<glyph unicode="]" horiz-adv-x="757" d="M-8 -426l362 20v1704l-362 21v72h510v-1887h-510v70z" />
<glyph unicode="^" horiz-adv-x="708" d="M16 893l308 498h59l313 -498h-114l-232 364l-221 -364h-113z" />
<glyph unicode="_" horiz-adv-x="952" d="M0 0v119h954v-119h-954z" />
<glyph unicode="`" horiz-adv-x="792" d="M260 1401h186l117 -305l-59 -33z" />
<glyph unicode="a" horiz-adv-x="886" d="M59 247q0 118 70 210q188 60 375 59l76 -2q0 2 2 61.5t2 90.5q0 250 -195 249q-90 0 -127 -45q-27 -33 -37 -149h-59q-41 102 -41 211l20 22q133 61 283 62q162 0 235.5 -84t73.5 -277q0 -57 -9 -177q-10 -134 -10 -191q0 -62 15 -162q39 -23 100 -23h19v-59l-152 -55 q-115 0 -114 123h-6l-117 -95q-59 -33 -144 -32q-117 0 -188.5 72.5t-71.5 190.5zM223 266q0 -78 44 -121t122 -43q96 0 191 68v274q-17 1 -34 1q-180 0 -294 -62q-29 -37 -29 -117z" />
<glyph unicode="b" horiz-adv-x="1034" d="M20 1362v61l275 68l14 -12v-574l142 92q27 20 135 21q170 0 274.5 -128t104.5 -378q0 -219 -138.5 -373.5t-347.5 -154.5q-106 0 -207 49l-92 -35l-18 10v1311zM309 129q66 -45 164 -45q150 0 240 104.5t90 296.5q0 190 -79 301t-220 111q-92 0 -195 -49v-719z" />
<glyph unicode="c" horiz-adv-x="864" d="M70 489q0 233 147.5 381t343.5 148q119 0 197 -37l-19 -244h-57q-18 119 -35 144q-25 37 -108 37q-139 0 -223.5 -100.5t-84.5 -301.5q0 -180 100.5 -297t239.5 -117q20 0 41 4.5t36.5 9.5t37.5 17l34 19q11 6 37 22l36 23l34 -64l-118 -94q-80 -63 -199 -64 q-193 0 -316.5 138t-123.5 376z" />
<glyph unicode="d" horiz-adv-x="1056" d="M70 489q0 209 136 369t351 160q106 0 178 -19v322l-141 43v61l274 66l17 -10v-1354q43 -25 119 -25h22v-59l-172 -53q-113 0 -113 121h-6l-117 -95q-63 -41 -163 -41q-154 0 -269.5 141.5t-115.5 372.5zM231 516q0 -178 89.5 -296t195.5 -118q68 0 110 12.5t109 55.5v709 q-68 39 -166 39q-162 0 -250 -116t-88 -286z" />
<glyph unicode="e" horiz-adv-x="927" d="M70 489q0 231 126 380t306 149q166 0 254 -107q74 -90 74 -229q0 -26 -3 -53l-24 -39l-570 -37q-2 -18 -2 -57q0 -172 93.5 -283t238.5 -111q66 0 119 21.5t139 71.5l29 -62q-158 -109 -215 -131q-68 -27 -156 -27q-180 0 -294.5 137t-114.5 377zM242 637l430 43 q0 133 -58.5 185.5t-128.5 52.5q-98 0 -165.5 -78t-77.5 -203z" />
<glyph unicode="f" horiz-adv-x="698" d="M59 0v68q66 0 140 59v766h-133v78q96 20 133 63v117q0 180 102 260t252 80q137 0 211 -59l14 -19q-6 -98 -28 -182h-60q-14 123 -41 143q-25 35 -100 35q-98 0 -149.5 -63.5t-51.5 -235.5v-117h303l-20 -100h-283v-766q29 -25 80 -42t80 -17v-68h-449z" />
<glyph unicode="g" horiz-adv-x="1019" d="M43 -98l147 153l29 -18l-31 -96q0 -111 82 -169.5t224 -58.5q123 0 194.5 50.5t71.5 127.5q0 63 -52.5 99.5t-183.5 56.5l-325 51l-25 43q14 66 98 197q-190 84 -190 330q0 145 106.5 247.5t260.5 102.5q180 0 256 -62q106 53 186 54q29 0 53.5 -6.5t34.5 -12.5t12 -10 l2 -14q0 -25 -16 -61q-20 -46 -35 -50q-2 0 -15.5 10.5t-37 20.5t-51.5 10l-70 -6q84 -94 84 -232q0 -158 -103.5 -251t-289.5 -93q-45 0 -105 7q-25 -25 -55 -105q352 -39 483 -99.5t131 -180.5q0 -145 -129 -239.5t-311 -94.5q-199 0 -314.5 73.5t-115.5 225.5zM238 680 q0 -272 249 -272q102 0 155.5 68.5t53.5 185t-68.5 190.5t-164.5 74q-225 0 -225 -246z" />
<glyph unicode="h" horiz-adv-x="1126" d="M47 1362v61l275 68l16 -12v-574l141 92q25 20 135 21q174 0 254 -98.5t80 -327.5v-465q70 -59 142 -59v-68h-418v68q84 12 127 59v455q0 160 -58.5 237.5t-208.5 77.5q-94 0 -194 -49v-721q70 -59 127 -59v-68h-416v68q66 0 139 59v1192q-45 43 -141 43z" />
<glyph unicode="i" horiz-adv-x="589" d="M80 891q94 0 141 -45v-719q-74 -59 -139 -59v-68h428v68q-72 0 -141 59v879l-15 12l-274 -66v-61zM193 1360q0 47 27.5 77.5t74.5 30.5q43 0 70.5 -30.5t27.5 -77.5t-27.5 -78t-70.5 -31q-47 0 -74.5 31t-27.5 78z" />
<glyph unicode="j" horiz-adv-x="499" d="M6 -358q100 78 143.5 176t43.5 254v774q-45 45 -142 45v61l275 66l16 -12v-934q0 -305 -309 -469zM152 1360q0 47 27.5 77.5t72.5 30.5t72.5 -30.5t27.5 -77.5t-27.5 -78t-72.5 -31t-72.5 31t-27.5 78z" />
<glyph unicode="k" horiz-adv-x="1034" d="M47 1362v61l275 68l16 -12v-1352q70 -59 141 -59v-68h-430v68q66 0 139 59v1192q-45 43 -141 43zM383 514v25l313 352q-37 25 -131 35v67h404v-67l-113 -35l-328 -311l287 -371q96 -129 219 -162v-55h-119q-127 0 -219 117l-152 203l-136 186z" />
<glyph unicode="l" horiz-adv-x="577" d="M31 1362v61l272 68l16 -12v-1276q0 -68 43 -97q47 -29 201 -28v-64l-233 -39q-160 0 -160 183v1161q-45 43 -139 43z" />
<glyph unicode="m" horiz-adv-x="1615" d="M47 901v62l275 65l16 -10v-113l141 92q25 20 135 21q90 0 145.5 -28.5t90.5 -96.5l166 104q31 20 135 21q156 0 220.5 -96.5t64.5 -329.5v-465q70 -59 141 -59v-68h-418v68q84 12 129 59v455q0 164 -45 239.5t-174 75.5q-96 0 -199 -51q29 -94 29 -254v-465 q55 -49 129 -59v-68h-403v68q82 12 127 59v455q0 164 -45 239.5t-175 75.5q-94 0 -194 -49v-721q53 -49 129 -59v-68h-418v68q66 0 139 59v731q-45 43 -141 43z" />
<glyph unicode="n" horiz-adv-x="1126" d="M47 901v62l275 65l16 -10v-113l141 92q31 20 135 21q174 0 254 -98.5t80 -327.5v-465q70 -59 142 -59v-68h-418v68q84 12 127 59v455q0 160 -58.5 237.5t-208.5 77.5q-94 0 -194 -49v-721q55 -47 129 -59v-68h-418v68q66 0 139 59v731q-45 43 -141 43z" />
<glyph unicode="o" horiz-adv-x="1062" d="M70 489q0 236 139 382.5t334 146.5q186 0 319 -138.5t133 -365.5q0 -252 -125 -395.5t-348 -143.5q-209 0 -330.5 139t-121.5 375zM233 516q0 -186 88.5 -313t223.5 -127q285 0 284 409q0 188 -85 310.5t-224 122.5q-143 0 -215 -109t-72 -293z" />
<glyph unicode="p" horiz-adv-x="1054" d="M39 901v62l274 65l17 -10v-113l141 92q31 20 135 21q168 0 273.5 -128t105.5 -378q0 -219 -140 -378t-347 -159q-82 0 -168 33v-278q70 -59 141 -60v-67h-430v67q66 0 139 60v1128q-45 43 -141 43zM330 127q70 -51 164 -51q147 0 238 107.5t91 301.5q0 190 -78.5 301 t-220.5 111q-94 0 -194 -49v-721z" />
<glyph unicode="q" horiz-adv-x="1030" d="M70 489q0 219 139 374t348 155q92 0 205 -49l92 35l20 -11v-1263q70 -59 142 -60v-67h-430v67q66 0 139 60v364l-141 -98q-25 -20 -135 -21q-166 0 -272.5 131t-106.5 383zM231 516q0 -190 79 -305t220 -115q84 0 195 56v718q-72 47 -162 48q-150 0 -241 -104.5 t-91 -297.5z" />
<glyph unicode="r" horiz-adv-x="733" d="M47 901v62l275 65l16 -10v-131l141 110q25 20 129 21q29 0 63 -9.5t52 -19.5l18 -8l15 -18q0 -49 -20.5 -90.5t-39 -57.5t-24.5 -6q-49 78 -150 78q-76 0 -184 -60v-700q70 -59 141 -59v-68h-430v68q66 0 139 59v731q-45 43 -141 43z" />
<glyph unicode="s" horiz-adv-x="798" d="M90 72v227h62l38 -139q84 -84 195 -84q78 0 133 40t55 111q0 20 -4 39t-16 36l-19.5 28.5t-34 30t-37.5 25.5l-50 31l-52 32q-135 84 -198.5 155.5t-63.5 159.5q0 119 91.5 186.5t235.5 67.5t247 -80l14 -18q-4 -82 -33 -172h-57q-16 109 -41 131q-47 39 -147 39 q-74 0 -125.5 -29t-51.5 -86q0 -51 48.5 -95t177.5 -124q164 -98 214 -162t50 -164q0 -113 -103.5 -198t-248.5 -85q-94 0 -164 25t-94 47z" />
<glyph unicode="t" horiz-adv-x="661" d="M59 893v63q84 51 120 114t75 192h55v-269h324l-19 -100h-305v-604q0 -129 73 -161q29 -13 72 -13q63 0 156 28l19 -63l-238 -105q-113 0 -171 45.5t-58 155.5v717h-103z" />
<glyph unicode="u" horiz-adv-x="1105" d="M20 891v61l275 66l14 -12v-594q0 -172 51.5 -244t165.5 -72q133 0 232 47v703q-47 45 -142 45v61l275 66l14 -12v-859q55 -51 154 -55v-61l-287 -56l-14 13v94l-142 -80q-43 -27 -155 -27q-162 0 -230.5 94.5t-68.5 331.5v445q-48 45 -142 45z" />
<glyph unicode="v" horiz-adv-x="1028" d="M-51 926v67h467v-67q-72 0 -148 -60l269 -628l2 -31l256 659q-74 59 -146 60v67h389v-67q-72 0 -145 -60l-338 -878h-68l-393 878q-73 60 -145 60z" />
<glyph unicode="w" horiz-adv-x="1398" d="M-70 926v67h455v-67q-27 0 -71 -16.5t-74 -43.5l180 -616l10 -49l262 792h49l236 -743l10 -49l176 665q-29 27 -72.5 43.5t-70.5 16.5v67h381v-67q-70 0 -144 -60l-249 -878h-76l-244 708l-252 -708h-74l-288 878q-74 60 -144 60z" />
<glyph unicode="x" horiz-adv-x="991" d="M10 0v68q27 0 73 16t77 43l264 373l-252 366q-20 29 -66.5 44.5t-80.5 15.5v67h421v-67q-57 -8 -104 -60l170 -280l180 280q-45 49 -106 60v67h364v-67q-29 0 -75 -16.5t-74 -43.5l-228 -344l258 -395q20 -29 67.5 -44t82.5 -15v-68h-422v68q57 8 105 59l-189 305 l-207 -305q43 -49 105 -59v-68h-363z" />
<glyph unicode="y" horiz-adv-x="960" d="M-70 926v67h416v-67q-70 -10 -115 -60l258 -602l27 -80l219 682q-41 47 -114 60v67h360v-67q-29 0 -71 -16.5t-66 -43.5l-293 -852q-74 -217 -76 -290q41 -35 107 -46v-75h-373v65q8 2 34.5 12.5t42 15.5t35 17.5t25.5 24.5l105 276l-381 852q-70 60 -140 60z" />
<glyph unicode="z" horiz-adv-x="882" d="M66 41l552 852h-354q-27 -29 -43 -83t-16 -87h-88v270h688l12 -43l-538 -852h397q59 74 59 181h88v-279h-731z" />
<glyph unicode="{" horiz-adv-x="759" d="M23 442v25q158 90 182 207q18 88 -3.5 248.5t-21.5 216.5q0 141 77 196.5t212 55.5h223v-72l-184 -10q-98 -6 -138 -63.5t-40 -170.5q0 -49 13 -134t17.5 -136t-12.5 -146q-35 -139 -162 -198v-12q127 -59 162 -199q16 -92 12 -148.5t-17 -145.5t-13 -136 q0 -115 40 -172.5t138 -63.5l184 -10v-70h-223q-135 0 -212 55.5t-77 196.5q0 53 21.5 222t3.5 258q-24 118 -182 206z" />
<glyph unicode="|" horiz-adv-x="569" d="M248 -496v1887h100v-1887h-100z" />
<glyph unicode="}" horiz-adv-x="751" d="M61 -426l183 10q100 6 140 63.5t40 172.5q0 47 -13.5 136t-17.5 145.5t13 148.5q33 139 159 199v12q-127 59 -159 198q-16 94 -12.5 145.5t17 136.5t13.5 134q0 113 -40 170.5t-140 63.5l-183 10v72h224q135 0 210.5 -55.5t75.5 -196.5q0 -55 -20.5 -216t-1.5 -249 q23 -117 182 -207v-25q-160 -88 -182 -206q-18 -88 2 -257t20 -223q0 -141 -75.5 -196.5t-210.5 -55.5h-224v70z" />
<glyph unicode="~" horiz-adv-x="827" d="M39 606q98 137 197 137q76 0 201.5 -61t183.5 -61q72 0 129 67l38 -26q-57 -166 -192 -166q-72 0 -197 62.5t-172 62.5q-74 0 -151 -58z" />
<glyph unicode="&#xa2;" horiz-adv-x="864" d="M70 489q0 207 114.5 346.5t286.5 174.5v166l98 20v-178q29 0 72 -4q59 -6 117 -33l-19 -244h-57q-18 119 -35 144q-25 37 -108 37q-139 0 -223.5 -100.5t-84.5 -301.5q0 -180 100.5 -297t239.5 -117q20 0 41 4.5t36.5 9.5t37.5 17l34 19q11 6 37 22l36 23l34 -64 l-118 -94q-68 -51 -150 -62v-192l-100 -18v213q-172 18 -280.5 153t-108.5 356z" />
<glyph unicode="&#xa3;" horiz-adv-x="970" d="M68 51q86 115 125.5 209t39.5 211q0 37 -2 122t-2 112h-145v100h143v174q0 190 101.5 268t246.5 78q162 0 285 -94l21 -23q0 -109 -33 -239h-70q-14 162 -45 198q-49 57 -149 58q-82 0 -139.5 -53.5t-57.5 -165.5q0 -90 4 -201h277l-21 -100h-252q6 -82 6 -160 q0 -131 -38.5 -215t-141.5 -203q86 66 170 66q49 0 161 -23t146 -23q51 0 89 24t90 85l47 -25q-4 -10 -21.5 -50t-23 -50l-21.5 -40t-23 -37l-26 -25q-18 -18 -32.5 -23.5t-37 -11.5t-47.5 -6q-61 0 -202.5 33.5t-180.5 33.5q-82 0 -200 -67z" />
<glyph unicode="&#xa5;" horiz-adv-x="1157" d="M20 1239v72h490v-72q-72 0 -145 -61l276 -506l289 506q-74 61 -148 61v72h406v-72q-70 0 -152 -61l-205 -373h220l-21 -100h-252q-12 -18 -30 -60l-33 -57h336l-21 -99h-336v-354q74 -63 148 -63v-72h-465v72q74 0 149 63v354h-352v99h336l-33 57q-25 41 -35 60h-268v100 h215l-211 373q-78 61 -158 61z" />
<glyph unicode="&#xa8;" horiz-adv-x="958" d="M162 1360q0 47 27.5 77.5t72.5 30.5q43 0 71.5 -30.5t28.5 -77.5t-28.5 -78t-71.5 -31q-45 0 -72.5 31t-27.5 78zM553 1360q0 47 27.5 77.5t72.5 30.5q43 0 72 -30.5t29 -77.5t-29 -78t-72 -31q-45 0 -72.5 31t-27.5 78z" />
<glyph unicode="&#xa9;" horiz-adv-x="1441" d="M33 596q0 305 195.5 504.5t489.5 199.5t489.5 -199.5t195.5 -504.5t-195.5 -505t-489.5 -200t-489.5 200t-195.5 505zM162 596q0 -262 154.5 -429t400.5 -167t401.5 167t155.5 429t-155.5 429t-401.5 167t-400.5 -167t-154.5 -429zM338 588q0 203 125 316.5t309 113.5 q135 0 213 -37l-18 -244h-58q-16 119 -32 144q-27 37 -119 37q-113 0 -185.5 -77t-72.5 -225.5t72.5 -231.5t181.5 -83q23 0 46 2t39.5 5t36.5 10l30 12q11 4 31.5 15t27 15.5t29 17.5t28.5 17l33 -63l-117 -94q-80 -63 -213 -64q-170 0 -278.5 110.5t-108.5 303.5z" />
<glyph unicode="&#xab;" horiz-adv-x="747" d="M10 555q406 406 406 408l55 -45l-250 -363l250 -365l-55 -49zM348 555q305 328 305 330l56 -47l-179 -283l179 -285l-56 -49z" />
<glyph unicode="&#xad;" horiz-adv-x="606" d="M31 528v119h547v-119h-547z" />
<glyph unicode="&#xae;" horiz-adv-x="1138" d="M27 942q0 227 156.5 387t391.5 160q231 0 390 -155.5t159 -391.5q0 -229 -155.5 -389t-393.5 -160q-227 0 -387.5 155.5t-160.5 393.5zM135 942.5q0 -192.5 126 -327t314.5 -134.5t314.5 134.5t126 327t-126 325.5t-314.5 133t-314.5 -133t-126 -325.5zM279 645v55 q18 2 50.5 19.5t45.5 30.5v389q-37 37 -96 51v55l309 4q115 0 168 -37.5t53 -117.5q0 -137 -158 -174q45 -12 66 -27l82 -129q39 -49 71 -64v-55h-65q-35 0 -47.5 1t-32.5 11.5t-33 30.5q-10 14 -129 221l-63 -4v-155q27 -31 86 -50v-55h-307zM500 967l73 6q106 8 107 108 q0 55 -25.5 78t-83.5 23q-51 0 -71 -6v-209z" />
<glyph unicode="&#xaf;" horiz-adv-x="768" d="M111 1257v97h530v-97h-530z" />
<glyph unicode="&#xb4;" horiz-adv-x="899" d="M379 1096l117 305h188l-246 -338z" />
<glyph unicode="&#xb8;" horiz-adv-x="819" d="M211 -399l57 65q98 -66 187 -65q80 0 82 69q2 41 -47.5 81t-143.5 83l127 223l90 -18l-76 -137q57 -35 83 -52.5t52.5 -57.5t26.5 -89q0 -72 -76.5 -128t-156.5 -56q-47 0 -88 16.5t-117 65.5z" />
<glyph unicode="&#xbb;" horiz-adv-x="747" d="M39 270l180 285l-180 283l57 47l305 -330l-305 -334zM279 190l249 365l-249 363l55 45l405 -408l-405 -414z" />
<glyph unicode="&#xc6;" horiz-adv-x="1728" d="M-10 0v72q74 0 149 63l723 1256h723v-336h-80q0 55 -15 126.5t-46 108.5h-416v-528h299q35 39 53 156h80v-414h-80q-16 121 -53 158h-299v-533q63 -31 197 -31h215q72 78 119 238h79l-57 -336h-864v72q96 12 145 63v334h-403l-183 -334q59 -53 142 -63v-72h-428zM512 567 h350v678l-28 -80z" />
<glyph unicode="&#xe6;" horiz-adv-x="1390" d="M49 247q0 118 70 210q180 76 450 98q0 2 2 41t2 70q0 250 -194 249q-88 0 -127 -45q-25 -33 -37 -149h-59q-41 102 -41 211l20 22q137 61 283 62q242 0 278 -178q45 90 124 135t173 45q166 0 254 -106.5t72 -282.5l-27 -39l-567 -78q-2 -16 -2 -68q0 -162 75.5 -252 t217.5 -90q63 0 117.5 13.5t87 30t90.5 49.5l30 -62q-160 -109 -215 -131q-68 -27 -157 -27q-231 0 -359 160l-157 -119q-59 -33 -144 -32q-117 0 -188.5 72.5t-71.5 190.5zM213 266q0 -78 44 -121t122 -43q86 0 190 76v307q-190 -29 -327 -102q-29 -37 -29 -117zM729 586 l432 94q0 133 -58.5 185.5t-127.5 52.5q-104 0 -175 -85t-71 -247z" />
<glyph unicode="&#x2c6;" horiz-adv-x="927" d="M168 1077l225 324h111l254 -324h-158l-168 236l-184 -236h-80z" />
<glyph unicode="&#x2d8;" horiz-adv-x="1654" d="M324 1358q0 29 7 53.5t13 34.5l6 10h74q8 -145 151 -145q123 0 218 127l38 -17q-113 -231 -286 -231q-88 0 -154.5 45t-66.5 123z" />
<glyph unicode="&#x2da;" horiz-adv-x="923" d="M295 1268q0 72 49 122t123 50q72 0 121 -50.5t49 -121.5q0 -76 -48 -126t-122 -50t-123 50t-49 126zM365 1270q0 -47 27.5 -78t76.5 -31q47 0 73.5 31t26.5 78q0 43 -26.5 71.5t-73.5 28.5q-49 0 -76.5 -28.5t-27.5 -71.5z" />
<glyph unicode="&#x2dc;" horiz-adv-x="929" d="M141 1272q49 61 93.5 86.5t105.5 25.5q53 0 135 -30.5t125 -30.5q74 0 141 61l27 -47q-76 -125 -186 -125q-53 0 -133 34t-125 34q-76 0 -156 -66z" />
<glyph unicode="&#x2dd;" horiz-adv-x="985" d="M150 1096l116 305h178l-235 -338zM432 1096l197 305h180l-315 -338z" />
<glyph unicode="&#x400;" horiz-adv-x="1093" d="M272 1870h186l117 -305l-59 -33zM80 0v72q74 0 149 63v1122q-74 61 -149 62v72h872v-336h-80q0 55 -16 126.5t-45 108.5h-416v-528h299q35 39 54 156h79v-414h-79q-16 121 -54 158h-299v-533q61 -31 197 -31h215q72 78 119 238h80l-58 -336h-868z" />
<glyph unicode="&#x401;" horiz-adv-x="1044" d="M59 0h869l57 336h-80q-47 -160 -119 -238h-215q-135 0 -196 31v533h299q37 -37 53 -158h80v414h-80q-18 -117 -53 -156h-299v528h416q31 -37 46 -108.5t15 -126.5h80v336h-873v-72q76 0 150 -62v-1122q-76 -63 -150 -63v-72zM240 1618q0 45 28.5 75.5t73.5 30.5 q43 0 70.5 -30.5t27.5 -75.5q0 -49 -27.5 -80t-70.5 -31q-45 0 -73.5 31t-28.5 80zM631 1618q0 45 28.5 75.5t73.5 30.5q43 0 70.5 -30.5t27.5 -75.5q0 -49 -27.5 -80t-70.5 -31q-45 0 -73.5 31t-28.5 80z" />
<glyph unicode="&#x402;" horiz-adv-x="1347" d="M49 1055v336h1026v-295h-80q0 119 -61 194h-305v-575l157 71q66 29 183 29q170 0 255 -100.5t85 -331.5q0 -188 -92.5 -330.5t-233.5 -212.5l-33 39q102 92 147.5 192.5t45.5 274.5v23q0 156 -60.5 237.5t-171.5 81.5q-113 0 -282 -35v-518q66 -57 141 -63v-72h-457v72 q74 0 150 63v1155h-273q-29 -37 -45 -108.5t-16 -126.5h-80z" />
<glyph unicode="&#x403;" horiz-adv-x="933" d="M59 0h482v72q-90 0 -166 63v1155h432q29 -37 45 -108.5t16 -126.5h68v336h-877v-72q76 0 150 -62v-1122q-76 -63 -150 -63v-72zM305 1483l213 284l178 -90l-338 -235z" />
<glyph unicode="&#x404;" horiz-adv-x="1177" d="M98 680q0 328 172 525.5t435 197.5q219 0 321 -49l18 -25q4 -47 -10 -149.5t-33 -149.5h-61q-25 176 -49 213q-16 27 -74.5 43.5t-126.5 16.5q-188 0 -296.5 -143.5t-114.5 -414.5l516 17v-141q-215 35 -516 43q10 -256 117.5 -409t301.5 -153q156 0 349 129l34 -65 q-8 -4 -40.5 -33t-43 -36t-41 -30.5t-49 -30.5t-53.5 -22.5t-66.5 -21.5t-75.5 -11.5t-91 -5.5q-244 0 -383.5 186.5t-139.5 518.5z" />
<glyph unicode="&#x405;" horiz-adv-x="987" d="M90 106v293h70l49 -194q109 -129 260 -129q98 0 178 66.5t80 150.5q0 106 -49 174t-234 180q-186 115 -264 201t-78 207q0 162 115 254t309 92q203 0 326 -98l18 -23q-2 -51 -10 -104.5t-14 -81.5l-8 -31h-64q-18 152 -55 182q-61 55 -184 55q-113 0 -187 -54t-74 -140 q0 -78 60.5 -147.5t218.5 -167.5q213 -133 278.5 -217.5t65.5 -213.5q0 -145 -124 -265t-314 -120q-113 0 -205 33t-129 68z" />
<glyph unicode="&#x406;" horiz-adv-x="702" d="M119 0v72q74 0 149 63v1120q-76 63 -149 64v72h465v-72q-74 0 -150 -64v-1120q76 -63 150 -63v-72h-465z" />
<glyph unicode="&#x407;" horiz-adv-x="802" d="M45 1618q0 45 27.5 75.5t74.5 30.5q43 0 71 -30.5t28 -75.5q0 -49 -28 -80t-71 -31q-47 0 -74.5 31t-27.5 80zM119 0h465v72q-74 0 -150 63v1120q76 63 150 64v72h-465v-72q74 0 149 -64v-1120q-76 -63 -149 -63v-72zM436 1618q0 45 29 75.5t74 30.5q43 0 70.5 -30.5 t27.5 -75.5q0 -49 -27.5 -80t-70.5 -31q-45 0 -74 31t-29 80z" />
<glyph unicode="&#x408;" horiz-adv-x="702" d="M59 -311q106 92 163 193.5t57 258.5v1114q-76 63 -150 64v72h465v-72q-74 0 -150 -64v-999q0 -172 -48 -302t-113.5 -198.5t-163.5 -132.5z" />
<glyph unicode="&#x409;" horiz-adv-x="1734" d="M0 31q0 100 23 194h63q35 -49 90 -49q53 0 92 40t64.5 119t42 170t25 218t11.5 240.5t3 259.5v34q-74 61 -205 62v72h981v-72q-84 0 -158 -62v-466q201 18 326 -5q150 -25 229.5 -118t79.5 -230q0 -203 -106.5 -320.5t-329.5 -117.5h-514v72q74 0 149 63v1155h-336 q0 -137 -2 -242.5t-7 -233.5t-15 -224t-28.5 -197.5t-44 -172t-61.5 -129t-85 -87.5t-109 -29q-137 1 -178 56zM1032 129q61 -31 178 -31q137 0 208 89t71 231q0 111 -75 193.5t-224 82.5q-68 0 -158 -20v-545z" />
<glyph unicode="&#x40a;" horiz-adv-x="1830" d="M80 0v72q74 0 149 63v1122q-74 61 -149 62v72h465v-72q-74 0 -150 -64v-493h566v493q-74 63 -148 64v72h473v-72q-27 0 -77 -31t-81 -31v-466q319 27 476 -59.5t157 -293.5q0 -203 -105.5 -320.5t-328.5 -117.5h-514v72q29 0 48.5 7t48 24.5t48.5 27.5l3 4v527h-566v-527 q76 -63 150 -63v-72h-465zM1128 129q61 -31 177 -31q137 0 207.5 89t70.5 231q0 111 -74.5 193.5t-222.5 82.5q-68 0 -158 -20v-545z" />
<glyph unicode="&#x40b;" horiz-adv-x="1499" d="M49 1055v336h1026v-295h-80q0 119 -61 194h-305v-575l157 71q66 29 183 29q170 0 255 -100.5t85 -331.5v-248q76 -63 151 -63v-72h-459v72q78 6 142 63v234q0 156 -60.5 237.5t-171.5 81.5q-113 0 -282 -35v-518q66 -57 141 -63v-72h-457v72q74 0 150 63v1155h-273 q-29 -37 -45 -108.5t-16 -126.5h-80z" />
<glyph unicode="&#x40c;" horiz-adv-x="1263" d="M80 0h487v72q-72 0 -147 63v563q82 14 151.5 2t106.5 -82q49 -98 119.5 -257.5t136.5 -286.5q39 -82 129 -82h203v63q-78 10 -134.5 68.5t-113.5 167.5l-129 284q-45 94 -92 134.5t-140 48.5q88 39 166 139l120 173q83 122 128 181l154 68v72h-477v-72q98 -12 165 -68 l-352 -485q-61 8 -141 6v485q74 61 147 62v72h-465v-72q76 0 150 -62v-1122q-76 -63 -172 -63v-72zM479 1483l213 284l178 -90l-340 -235z" />
<glyph unicode="&#x40d;" d="M446 1870h186l117 -305l-59 -33zM80 0v72q74 0 149 63v1122q-74 61 -149 62v72h465v-72q-74 0 -150 -64v-903l-22 -127l637 1166h295v-72q-76 0 -148 -62v-1122q74 -63 148 -63v-72h-480v72q88 0 164 63v881l23 145l-637 -1161h-295z" />
<glyph unicode="&#x40e;" horiz-adv-x="1222" d="M12 1315v76h486v-76q-76 0 -140 -64l347 -751l270 751q-70 63 -146 64v76h406v-76q-76 0 -150 -62l-323 -897q-80 -240 -137.5 -310.5t-163.5 -70.5q-119 0 -174 54q-8 74 20 196h64q37 -57 104 -57q57 0 91 31.5t63 128.5l-455 927q-76 60 -162 60zM336 1649q0 25 13 50 t26 42l14 14h107v-141q41 -51 155 -51q53 0 92 11t52 21l14 11v149h94q68 -53 68 -106q0 -23 -8 -50l-19 -49q-117 -61 -293 -61q-80 0 -149.5 14.5t-98.5 30.5l-30 16q-14 18 -27 49q-10 23 -10 50z" />
<glyph unicode="&#x40f;" horiz-adv-x="1343" d="M80 0v72q84 6 149 61v1122q-72 59 -149 64v72h465v-72q-94 -8 -150 -64v-1157h555v1157q-51 55 -149 64v72h465v-72q-82 -6 -150 -64v-1140q61 -43 150 -43v-72h-531l23 -369h-156l23 369h-545z" />
<glyph unicode="&#x410;" horiz-adv-x="1169" d="M-10 0v72q74 0 149 63l430 1278h76l385 -1278q76 -63 150 -63v-72h-463v72q96 12 145 63l-102 334h-406l-106 -334q59 -53 141 -63v-72h-399zM383 567h344l-162 586l-20 -106z" />
<glyph unicode="&#x411;" horiz-adv-x="1150" d="M80 0v72q74 0 149 63v1122q-74 61 -149 62v72h887v-336h-68q0 55 -15.5 126.5t-45.5 108.5h-443v-499q217 18 350 -5q147 -25 227.5 -118t80.5 -230q0 -199 -116 -318.5t-343 -119.5h-514zM395 129q61 -31 176 -31q139 0 221 90.5t82 229.5q0 111 -74.5 193.5 t-224.5 82.5q-90 0 -180 -20v-545z" />
<glyph unicode="&#x412;" horiz-adv-x="1150" d="M80 0v72q74 0 149 63v1120q-76 63 -149 64v72h158q35 0 138 9t159 9q225 0 335.5 -93t110.5 -257q0 -63 -35 -131t-90 -109q-49 -37 -139 -67q76 -8 137 -39q86 -39 142.5 -121t56.5 -176q0 -184 -117 -300t-342 -116h-514zM395 129q78 -37 176 -37q137 0 220 88t83 203 q0 133 -72.5 212t-226.5 79q-119 0 -180 -15v-530zM395 748l121 14q295 39 295 264q0 131 -76 207t-203 76q-41 0 -137 -21v-540z" />
<glyph unicode="&#x413;" horiz-adv-x="985" d="M80 0v72q74 0 149 63v1122q-74 61 -149 62v72h876v-336h-67q0 55 -16.5 126.5t-45.5 108.5h-432v-1155q76 -63 166 -63v-72h-481z" />
<glyph unicode="&#x414;" horiz-adv-x="1357" d="M31 98h141q221 260 221 1143q-43 37 -105.5 57.5t-109.5 20.5v72h1073v-72q-43 0 -102 -20.5t-105 -57.5v-1124l25 -19h201v-467h-80q0 102 -26.5 206t-69.5 163h-897q-41 -59 -69 -163.5t-28 -205.5h-69v467zM330 98h549v1186h-367q-4 -188 -9 -277t-21.5 -285 t-54.5 -348.5t-97 -275.5z" />
<glyph unicode="&#x415;" horiz-adv-x="1093" d="M80 0v72q74 0 149 63v1122q-74 61 -149 62v72h872v-336h-80q0 55 -16 126.5t-45 108.5h-416v-528h299q35 39 54 156h79v-414h-79q-16 121 -54 158h-299v-533q61 -31 197 -31h215q72 78 119 238h80l-58 -336h-868z" />
<glyph unicode="&#x416;" horiz-adv-x="1839" d="M31 -8v63q72 16 121 70.5t106 165.5l139 284q45 100 84 135t137 44q-63 27 -147 143l-248 354l-162 68v72h484v-72q-98 -12 -166 -68l336 -489q74 8 127 6v489q-74 61 -164 62v72h483v-72q-88 0 -164 -64v-487q51 2 127 -6l336 489q-68 55 -166 68v72h484v-72l-160 -68 l-250 -354q-82 -117 -145 -143q96 -8 135 -43t84 -136l139 -284q57 -111 106.5 -165t122.5 -71v-63h-184q-88 0 -129 82l-272 544q-33 63 -83 77t-145 7v-567q76 -63 164 -63v-72h-483v72q88 0 164 63v567q-51 2 -93 1t-77 -21t-56 -64l-274 -544q-41 -82 -129 -82h-182z " />
<glyph unicode="&#x417;" horiz-adv-x="1069" d="M98 55q0 162 25 281h59q31 -125 74 -178q57 -70 176 -70q365 0 365 318q0 139 -59.5 206.5t-155.5 67.5l-283 -35v127h113q322 0 321 295q0 96 -68.5 166t-172.5 70q-139 0 -209 -46q-68 -104 -68 -241h-88v364h59q35 2 137.5 12.5t174.5 10.5q209 0 306 -100.5 t97 -247.5q0 -164 -86 -240q-12 -10 -37.5 -23.5t-56.5 -24.5t-41 -17q14 -6 64.5 -18.5t66.5 -20.5q160 -90 160 -295q0 -193 -115 -317t-381 -124q-197 0 -356 58z" />
<glyph unicode="&#x418;" d="M80 0v72q74 0 149 63v1122q-74 61 -149 62v72h465v-72q-74 0 -150 -64v-903l-22 -127l637 1166h295v-72q-76 0 -148 -62v-1122q74 -63 148 -63v-72h-480v72q88 0 164 63v881l23 145l-637 -1161h-295z" />
<glyph unicode="&#x419;" d="M80 0h295l637 1161l-23 -145v-881q-76 -63 -164 -63v-72h480v72q-74 0 -148 63v1122q72 61 148 62v72h-295l-637 -1166l22 127v903q76 63 150 64v72h-465v-72q76 0 149 -62v-1122q-76 -63 -149 -63v-72zM395 1649q0 25 13.5 50t25.5 42l15 14h108v-141q39 -51 154 -51 q53 0 92 11t51 21l14 11v149h95q68 -53 67 -106q0 -23 -6 -50l-20 -49q-115 -61 -293 -61q-80 0 -148.5 14.5t-99.5 30.5l-31 16q-14 18 -26 49q-11 23 -11 50z" />
<glyph unicode="&#x41a;" horiz-adv-x="1263" d="M80 0v72q96 0 172 63v1122q-74 61 -150 62v72h465v-72q-74 0 -147 -62v-485q80 2 141 -6l352 485q-68 55 -165 68v72h477v-72l-154 -68q-45 -59 -128 -181l-120 -173q-78 -100 -166 -139q92 -8 139.5 -48t92.5 -135l129 -284q57 -109 113.5 -167t134.5 -69v-63h-203 q-90 0 -129 82q-66 127 -136.5 286.5t-119.5 257.5q-37 70 -106.5 82.5t-151.5 -2.5v-563q76 -63 147 -63v-72h-487z" />
<glyph unicode="&#x41b;" horiz-adv-x="1259" d="M0 31q0 100 23 194h63q35 -49 90 -49q53 0 92 40t64.5 119t42 170t25 218t11.5 240.5t3 259.5v34q-74 61 -205 62v72h973v-72q-76 0 -150 -62v-1122q76 -63 150 -63v-72h-465v72q74 0 149 63v1155h-336q0 -137 -2 -242.5t-7 -233.5t-15 -224t-28.5 -197.5t-44 -172 t-61.5 -129t-85 -87.5t-109 -29q-137 1 -178 56z" />
<glyph unicode="&#x41c;" horiz-adv-x="1646" d="M70 0v72q74 0 149 63l41 1122q-76 63 -166 64v70h361v-35l372 -1045l396 1045v35h327v-72q-94 0 -170 -64l47 -1122q78 -61 150 -61v-72h-457v72q74 0 150 63l-47 789l20 184l-412 -1067l-16 -57h-47l-16 57l-418 1141l24 -176l-36 -871q76 -63 149 -63v-72h-401z" />
<glyph unicode="&#x41d;" d="M80 0v72q74 0 149 63v1122q-74 61 -149 62v72h465v-72q-74 0 -150 -64v-493h594v493q-76 63 -149 64v72h465v-72q-76 0 -148 -62v-1122q74 -63 148 -63v-72h-465v72q74 0 149 63v527h-594v-527q76 -63 150 -63v-72h-465z" />
<glyph unicode="&#x41e;" horiz-adv-x="1400" d="M98 684q0 330 176.5 529.5t442.5 199.5q254 0 420 -189.5t166 -504.5q0 -354 -157 -549t-458 -195q-283 0 -436.5 189.5t-153.5 519.5zM279 721q0 -289 118.5 -467t321.5 -178q209 0 307 165t98 437q0 289 -116.5 462t-323.5 173q-195 0 -300 -167t-105 -425z" />
<glyph unicode="&#x41f;" horiz-adv-x="1343" d="M80 0v72q74 0 149 63v1122q-74 61 -149 62v72h1186v-72q-76 0 -150 -62v-1120q76 -63 150 -63v-74h-465v74q74 0 149 63v1153h-555v-1155q76 -63 150 -63v-72h-465z" />
<glyph unicode="&#x420;" horiz-adv-x="1077" d="M80 0v72q74 0 149 63v1122q-74 61 -149 62v72h219l256 10q455 0 455 -395q0 -180 -114 -274.5t-298 -113.5l-203 -14v-469q76 -63 150 -63v-72h-465zM395 698l121 7q156 8 234.5 87.5t78.5 225.5q0 123 -66.5 202.5t-209.5 79.5q-94 0 -158 -14v-588z" />
<glyph unicode="&#x421;" horiz-adv-x="1148" d="M98 680q0 328 172 525.5t435 197.5q219 0 321 -49l18 -25q4 -47 -10 -149.5t-33 -149.5h-61q-25 176 -49 213q-16 27 -74.5 43.5t-126.5 16.5q-193 0 -302 -152t-109 -434q0 -279 108.5 -447t310.5 -168q156 0 349 129l34 -65l-141 -113q-94 -78 -319 -78 q-244 0 -383.5 186.5t-139.5 518.5z" />
<glyph unicode="&#x422;" horiz-adv-x="1124" d="M49 1055v336h1026v-336h-80q0 55 -16 126.5t-45 108.5h-289v-1155q76 -63 150 -63v-72h-465v72q74 0 149 63v1155h-289q-29 -37 -45 -108.5t-16 -126.5h-80z" />
<glyph unicode="&#x423;" horiz-adv-x="1222" d="M10 1315v76h486v-76q-76 0 -140 -64l346 -751l271 751q-70 63 -146 64v76h406v-76q-76 0 -150 -62l-358 -997q-59 -168 -114.5 -224.5t-151.5 -56.5q-119 0 -174 54q-8 74 20 196h64q37 -57 104 -57q59 0 92 31.5t64 128.5l-457 927q-74 60 -162 60z" />
<glyph unicode="&#x424;" horiz-adv-x="1550" d="M90 760q0 125 49 228.5t136 171t191.5 110.5t227.5 59v53q-80 55 -149 56v71h465v-71q-66 0 -150 -56v-47q252 -16 427 -164.5t175 -375.5q0 -270 -158.5 -426t-443.5 -176v-66q80 -55 150 -55v-72h-465v72q70 0 149 55v68q-270 25 -437 174t-167 391zM260 797 q0 -434 434 -506v948q-186 -23 -310 -142.5t-124 -299.5zM860 283q203 16 316.5 140t113.5 331q0 215 -114.5 340t-315.5 147v-958z" />
<glyph unicode="&#x425;" horiz-adv-x="1302" d="M31 0v72q80 0 155 63l381 553l-340 569q-74 61 -168 62v72h510v-72q-70 0 -141 -62l248 -423l278 421q-76 63 -141 64v72h420v-72q-80 0 -156 -64l-346 -510l375 -610q76 -63 168 -63v-72h-510v72q68 0 143 63l-280 461l-318 -461q76 -63 142 -63v-72h-420z" />
<glyph unicode="&#x426;" d="M80 0v72q76 0 149 61v1122q-76 63 -149 64v72h465v-72q-74 0 -150 -64v-1157h574v1157q-76 63 -148 64v72h465v-72q-74 0 -149 -64v-1140l22 -17h135v-467h-77q0 102 -28 206t-69 163h-1040z" />
<glyph unicode="&#x427;" horiz-adv-x="1214" d="M-10 1319v72h459v-72q-78 -6 -142 -64v-233q0 -156 61.5 -238t170.5 -82q113 0 282 35v518q-63 57 -141 64v72h457v-72q-74 0 -150 -64v-1120q76 -63 150 -63v-72h-482v72q90 0 166 63v541l-157 -72q-66 -29 -183 -29q-170 0 -255 100.5t-85 332.5v247q-75 64 -151 64z " />
<glyph unicode="&#x428;" horiz-adv-x="1781" d="M80 0v72q76 0 149 61v1122q-76 63 -149 64v72h442v-72q-78 -6 -137 -64v-1157h428v1157q-59 57 -137 64v72h430v-72q-78 -6 -137 -64v-1157h428v1157q-59 57 -137 64v72h442v-72q-74 0 -148 -64v-1122q72 -61 148 -61v-72h-1622z" />
<glyph unicode="&#x429;" horiz-adv-x="1800" d="M80 0v72q76 0 149 61v1122q-76 63 -149 64v72h442v-72q-78 -6 -137 -64v-1157h428v1157q-59 57 -137 64v72h430v-72q-78 -6 -137 -64v-1157h428v1157q-59 57 -137 64v72h442v-72q-74 0 -148 -64v-1140l23 -17h135v-467h-80q0 102 -26.5 206t-67.5 163h-1458z" />
<glyph unicode="&#x42a;" horiz-adv-x="1294" d="M59 961v430h682v-72q-80 0 -153 -62v-466q205 18 330 -5q150 -25 228.5 -118t78.5 -230q0 -203 -106.5 -320.5t-332.5 -117.5h-514v72q74 0 150 63v1155h-195q-96 -131 -96 -329h-72zM588 129q61 -31 176 -31q137 0 210 89t73 231q0 111 -75 193.5t-222 82.5 q-72 0 -162 -20v-545z" />
<glyph unicode="&#x42b;" horiz-adv-x="1556" d="M80 0v72q74 0 149 63v1122q-74 61 -149 62v72h473v-72q-84 0 -158 -62v-466q197 16 320 -5q147 -25 222 -116.5t75 -231.5q0 -438 -418 -438h-514zM395 129q61 -31 176 -31q135 0 197.5 87t62.5 233q0 113 -68.5 194.5t-215.5 81.5q-61 0 -152 -20v-545zM1014 0v72 q74 0 147 63v1120q-74 63 -147 64v72h465v-72q-74 0 -150 -64v-1120q76 -63 150 -63v-72h-465z" />
<glyph unicode="&#x42c;" horiz-adv-x="1097" d="M80 0v72q74 0 149 63v1122q-74 61 -149 62v72h473v-72q-84 0 -158 -62v-466q201 18 326 -5q150 -25 228.5 -118t78.5 -230q0 -203 -105.5 -320.5t-328.5 -117.5h-514zM395 129q61 -31 176 -31q137 0 208 89t71 231q0 111 -75 193.5t-222 82.5q-68 0 -158 -20v-545z" />
<glyph unicode="&#x42d;" horiz-adv-x="1138" d="M90 80q0 182 23 301h51q2 -10 6 -37t6 -37t6 -33.5t7.5 -34l9.5 -28.5t11 -28.5t12 -20.5l14 -19q96 -68 231 -67q178 0 286.5 142t108.5 446q-297 -4 -534 -43v141l532 -17q-12 219 -88 358.5t-209 182.5q-49 14 -117 14q-137 0 -186 -34q-74 -102 -84 -248h-70v346h54 q33 2 148.5 19.5t201.5 17.5q248 0 389 -181.5t141 -521.5q0 -362 -145 -542.5t-418 -180.5q-217 1 -387 105z" />
<glyph unicode="&#x42e;" horiz-adv-x="1824" d="M80 0v72q74 0 149 63v1120q-76 63 -149 64v72h465v-72q-74 0 -150 -64v-493h221q18 299 175 475t391 176q244 0 394 -188.5t150 -505.5q0 -356 -144 -550t-429 -194q-260 0 -397.5 182.5t-141.5 504.5h-219v-527q76 -63 150 -63v-72h-465zM793 721q0 -291 104 -468 t287 -177q365 0 364 602q0 295 -101 465t-298 170q-180 0 -268 -165t-88 -427z" />
<glyph unicode="&#x42f;" horiz-adv-x="1181" d="M20 -27v74q4 2 22.5 8t28 11.5t28 14.5t31.5 21.5t30.5 31t35 44t33.5 55.5l166 334l80 70q-123 12 -213 110.5t-90 251.5q0 172 119 281t338 109q43 0 128 1t128 1h217v-72q-76 0 -148 -62v-1122q74 -63 148 -63v-72h-473v72q82 0 157 63v502l-174 -8l-266 -527 q-39 -70 -85 -99.5t-138 -29.5h-103zM352 997q0 -121 74 -195.5t240 -74.5h120v559h-157q-127 0 -202 -77t-75 -212z" />
<glyph unicode="&#x430;" horiz-adv-x="886" d="M59 247q0 118 70 210q225 72 451 57q0 2 2 61.5t2 90.5q0 250 -195 249q-90 0 -127 -45q-27 -33 -37 -149h-59q-41 102 -41 211l20 22q133 61 283 62q162 0 235.5 -84t73.5 -277q0 -57 -9 -177t-10 -183.5t15 -169.5q45 -27 119 -23v-59l-152 -55q-115 0 -114 123h-6 l-117 -95q-59 -33 -144 -32q-117 0 -188.5 72.5t-71.5 190.5zM223 266q0 -78 44 -121t122 -43q96 0 191 68v274q-203 6 -328 -61q-29 -37 -29 -117z" />
<glyph unicode="&#x431;" horiz-adv-x="1007" d="M80 510q2 410 47 574.5t190 246.5q39 23 91.5 38t90.5 22.5t128 21.5t137 23l31 55h65q-29 -141 -55 -207q-289 -49 -326 -57q-170 -43 -235 -152q-61 -102 -76 -311q4 0 18.5 21.5t29.5 47t24 33.5q121 127 295 127q170 0 287.5 -136t117.5 -343q0 -246 -113.5 -392.5 t-330.5 -146.5q-197 0 -306.5 141.5t-109.5 393.5zM238 516q0 -188 76.5 -314t203.5 -126q256 0 256 409q0 168 -68.5 288t-193.5 120q-127 0 -200.5 -109.5t-73.5 -267.5z" />
<glyph unicode="&#x432;" horiz-adv-x="913" d="M47 0v68q66 0 139 59v739q-74 59 -139 60v67h168q25 0 116 7.5t144 7.5q162 0 244 -68t82 -184q0 -59 -24.5 -106.5t-61.5 -67.5q-70 -37 -99 -47q78 -23 99 -31q135 -51 135 -205q0 -133 -83 -216t-245 -83h-475zM336 111q66 -29 127 -29q100 0 159.5 56.5t59.5 137.5 q0 201 -215 201q-76 0 -131 -8v-358zM336 532l88 11q211 27 211 190q0 178 -201 178q-53 0 -98 -10v-369z" />
<glyph unicode="&#x433;" horiz-adv-x="765" d="M47 0v68q66 0 139 59v739q-74 59 -139 60v67h707v-338h-72q0 152 -59 238h-287v-766q29 -27 75 -43t74 -16v-68h-438z" />
<glyph unicode="&#x434;" horiz-adv-x="1017" d="M0 98h123q158 186 158 768q-74 59 -148 60v67h823v-67q-68 0 -139 -60v-755l14 -13h136v-377h-72q0 70 -24.5 152t-55.5 127h-661q-33 -45 -57.5 -127t-24.5 -152h-72v377zM262 98h406v795h-191q-59 -4 -84 -43q0 -2 -4 -82t-7 -121t-12.5 -129t-21.5 -148.5 t-34.5 -136.5t-51.5 -135z" />
<glyph unicode="&#x435;" horiz-adv-x="927" d="M70 489q0 231 126 380t306 149q166 0 254 -106.5t71 -282.5l-24 -39l-570 -37q-2 -18 -2 -57q0 -172 93.5 -283t238.5 -111q66 0 119 21.5t139 71.5l29 -62q-158 -109 -215 -131q-68 -27 -156 -27q-180 0 -294.5 137t-114.5 377zM242 637l430 43q0 133 -58.5 185.5 t-128.5 52.5q-98 0 -165.5 -78t-77.5 -203z" />
<glyph unicode="&#x436;" horiz-adv-x="1390" d="M0 -8v55q102 12 176 158l107 205q35 70 65.5 99.5t81.5 39.5q-43 18 -98 90l-191 244l-116 43v67h346v-63q-53 -6 -105 -47l119 -163q86 -120 121 -163q39 4 121 4v305q-55 49 -133 60v67h405v-67q-78 -10 -133 -60v-305q82 0 121 -4q35 43 122 164t119 162 q-51 41 -106 47v63h346v-67l-117 -43l-190 -244q-55 -72 -100 -90q55 -10 83.5 -39t65.5 -100l107 -205q39 -74 78.5 -112t97.5 -46v-55h-168q-66 0 -92 57l-201 389q-25 49 -61.5 58.5t-104.5 3.5v-373q55 -49 133 -59v-68h-405v68q78 10 133 59v373q-68 6 -105 -3.5 t-61 -58.5l-201 -389q-29 -57 -94 -57h-166z" />
<glyph unicode="&#x437;" horiz-adv-x="806" d="M55 33q0 119 19 203h53q39 -131 119 -162q31 -12 67 -13q123 0 192.5 60.5t69.5 169.5q0 184 -176 184q-80 0 -161 -12v94h61q117 0 174 50t57 126q0 70 -32.5 115t-81.5 59q-35 10 -60 11q-145 0 -188 -76q-25 -43 -25 -135h-71v284h51q33 0 113.5 8.5t140.5 8.5 q152 0 235.5 -65.5t83.5 -186.5q0 -63 -28.5 -108.5t-62.5 -66t-95 -46.5q119 -35 177 -88.5t58 -147.5q0 -137 -97 -230.5t-304 -93.5q-160 0 -274 41z" />
<glyph unicode="&#x438;" horiz-adv-x="1091" d="M47 0v68q66 0 139 59v739q-74 59 -139 60v67h418v-67q-76 -10 -129 -60v-540l-37 -160h4l469 827h272v-67q-66 0 -139 -60v-739q74 -59 139 -59v-68h-415v68q74 10 129 59v532l37 164h-7l-469 -823h-272z" />
<glyph unicode="&#x439;" horiz-adv-x="1091" d="M47 0h272l469 823h7l-37 -164v-532q-55 -49 -129 -59v-68h415v68q-66 0 -139 59v739q74 59 139 60v67h-272l-469 -827h-4l37 160v540q53 49 129 60v67h-418v-67q66 0 139 -60v-739q-74 -59 -139 -59v-68zM285 1346q0 74 53 131h80v-187q12 -12 53 -27.5t86 -15.5 q98 0 139 43v187h68q68 -57 67 -131q0 -25 -6 -52.5t-14 -44.5l-6 -16q-70 -66 -248 -66q-80 0 -145.5 21.5t-89.5 44.5q-37 60 -37 113z" />
<glyph unicode="&#x43a;" horiz-adv-x="985" d="M47 0v68q66 0 139 59v739q-74 59 -139 60v67h418v-67q-76 -10 -129 -60v-305q59 2 115 -4l256 326q-51 39 -113 47v63h348v-67l-119 -43l-196 -244q-51 -63 -113 -90q78 -10 113 -37t69 -96l113 -211q39 -74 79 -112t97 -46v-55h-166q-63 0 -94 57q-152 285 -215 391 q-23 41 -63.5 52.5t-110.5 5.5v-371q53 -49 129 -59v-68h-418z" />
<glyph unicode="&#x43b;" horiz-adv-x="1026" d="M-14 23q-6 74 14 135h55q29 -29 74 -29q39 0 66.5 26.5t48.5 108.5q66 248 65 602q-74 59 -143 60v67h813v-67q-66 0 -139 -60v-739q74 -59 139 -59v-68h-416v68q74 10 129 59v776h-172q-72 0 -96 -43q-6 -475 -93 -680t-222 -205q-80 1 -123 48z" />
<glyph unicode="&#x43c;" horiz-adv-x="1284" d="M39 0v68q66 0 141 59l23 739q-74 59 -140 60v67h310v-30l266 -721l268 721v30h305v-67q-66 0 -139 -60l31 -739q76 -59 141 -59v-68h-418v68q59 0 129 57l-10 569l12 156h-12l-319 -862h-35l-29 78l-272 778h-8q0 -53 8 -152l-19 -569q72 -55 125 -55v-68h-358z" />
<glyph unicode="&#x43d;" horiz-adv-x="1118" d="M47 0v68q66 0 139 59v739q-74 59 -139 60v67h418v-67q-76 -10 -129 -60v-282h446v282q-53 49 -129 60v67h418v-67q-66 0 -139 -60v-739q74 -59 139 -59v-68h-418v68q76 10 129 59v358h-446v-358q53 -49 129 -59v-68h-418z" />
<glyph unicode="&#x43e;" horiz-adv-x="1062" d="M70 489q0 236 139 382.5t334 146.5q186 0 319 -138.5t133 -365.5q0 -252 -125 -395.5t-348 -143.5q-209 0 -330.5 139t-121.5 375zM233 516q0 -186 88.5 -313t223.5 -127q285 0 284 409q0 188 -85 310.5t-224 122.5q-143 0 -215 -109t-72 -293z" />
<glyph unicode="&#x43f;" horiz-adv-x="1107" d="M59 0v68q66 0 140 59v739q-74 59 -140 60v67h990v-67q-66 0 -140 -60v-739q74 -59 140 -59v-68h-418v68q76 10 131 59v766h-414v-766q53 -49 129 -59v-68h-418z" />
<glyph unicode="&#x440;" horiz-adv-x="1054" d="M39 901v62l274 65l17 -10v-113l141 92q31 20 135 21q168 0 273.5 -128t105.5 -378q0 -219 -140 -378t-347 -159q-82 0 -168 33v-278q70 -59 141 -60v-67h-430v67q66 0 139 60v1128q-45 43 -141 43zM330 127q70 -51 164 -51q147 0 238 107.5t91 301.5q0 190 -78.5 301 t-220.5 111q-94 0 -194 -49v-721z" />
<glyph unicode="&#x441;" horiz-adv-x="864" d="M70 489q0 233 147.5 381t343.5 148q119 0 197 -37l-19 -244h-57q-18 119 -35 144q-25 37 -108 37q-139 0 -223.5 -100.5t-84.5 -301.5q0 -180 100.5 -297t239.5 -117q20 0 41 4.5t36.5 9.5t37.5 17l34 19q11 6 37 22l36 23l34 -64l-118 -94q-80 -63 -199 -64 q-193 0 -316.5 138t-123.5 376z" />
<glyph unicode="&#x442;" horiz-adv-x="870" d="M10 655v338h852v-338h-71q0 152 -60 238h-221v-766q31 -27 76 -43t73 -16v-68h-444v68q74 0 147 59v766h-221q-59 -86 -59 -238h-72z" />
<glyph unicode="&#x443;" horiz-adv-x="970" d="M-70 926v67h416v-67q-70 -10 -115 -60l258 -602l27 -80l219 682q-41 47 -114 60v67h360v-67q-29 0 -71 -16.5t-66 -43.5l-269 -774l-24 -78q-94 -283 -127 -341t-70 -70h-182v92q102 16 158 61q23 16 42 50t30.5 64t25.5 77t23 67l-381 852q-70 60 -140 60z" />
<glyph unicode="&#x444;" horiz-adv-x="1343" d="M70 489q0 238 134 383.5t328 145.5q23 0 66 -4v305q-45 43 -141 43v61l274 68l17 -12v-469q55 8 83 8q188 0 316.5 -138.5t128.5 -365.5q0 -254 -122 -396.5t-341 -142.5q-27 0 -65 5v-250q29 -27 74.5 -43.5t72.5 -16.5v-67h-444v67q74 0 147 60v252q-41 -6 -86 -7 q-207 0 -324.5 138t-117.5 376zM233 516q0 -188 83 -314t219 -126q43 0 63 4v821q-43 16 -88 17q-277 -1 -277 -402zM748 92q41 -16 86 -16q152 0 214 105.5t62 303.5q0 190 -81 311.5t-218 121.5q-25 0 -63 -9v-817z" />
<glyph unicode="&#x445;" horiz-adv-x="993" d="M12 0v68q27 0 73 16t77 43l264 373l-252 366q-20 29 -66.5 44.5t-80.5 15.5v67h422v-67q-57 -8 -105 -60l170 -280l180 280q-45 49 -106 60v67h364v-67q-29 0 -75 -16.5t-74 -43.5l-228 -344l259 -395q20 -29 67 -44t82 -15v-68h-422v68q57 8 105 59l-189 305l-207 -305 q43 -49 105 -59v-68h-363z" />
<glyph unicode="&#x446;" horiz-adv-x="1126" d="M47 0v68q66 0 139 59v739q-74 59 -139 60v67h418v-67q-76 -10 -129 -60v-768h414v768q-53 49 -129 60v67h415v-67q-66 0 -139 -60v-768h180v-377h-71q0 70 -25 152t-57 127h-877z" />
<glyph unicode="&#x447;" horiz-adv-x="1013" d="M-4 926v67h418v-67q-76 -10 -129 -60v-137q0 -217 164 -217q117 0 231 25v329q-53 49 -129 60v67h416v-67q-66 0 -140 -60v-739q74 -59 140 -59v-68h-441v68q29 0 76 16t78 43v330l-139 -43q-70 -20 -133 -21q-137 0 -205 79t-68 247v147q-73 60 -139 60z" />
<glyph unicode="&#x448;" horiz-adv-x="1574" d="M47 0v68q66 0 139 59v739q-74 59 -139 60v67h418v-67q-76 -10 -129 -60v-768h381v768q-53 49 -129 60v67h399v-67q-76 -10 -129 -60v-768h381v768q-53 49 -129 60v67h418v-67q-66 0 -139 -60v-739q74 -59 139 -59v-68h-1481z" />
<glyph unicode="&#x449;" horiz-adv-x="1622" d="M47 0v68q66 0 139 59v739q-74 59 -139 60v67h418v-67q-76 -10 -129 -60v-768h381v768q-53 49 -129 60v67h399v-67q-76 -10 -129 -60v-768h381v768q-53 49 -129 60v67h418v-67q-66 0 -139 -60v-768h178v-336h-72q0 123 -78 238h-1370z" />
<glyph unicode="&#x44a;" horiz-adv-x="1032" d="M10 655v338h639v-67q-78 0 -151 -60v-288l196 4q47 0 95.5 -10.5t102.5 -37t88 -83t34 -134.5q0 -133 -85 -225t-243 -92h-475v68q66 0 139 59v766h-198q-70 -100 -70 -238h-72zM498 111q66 -29 129 -29q100 0 158.5 59.5t58.5 154.5t-52.5 153.5t-162.5 58.5 q-61 0 -131 -10v-387z" />
<glyph unicode="&#x44b;" horiz-adv-x="1345" d="M47 926v67h442v-67q-78 0 -151 -60v-288l194 4q47 0 96.5 -10.5t102.5 -37t87 -83t34 -134.5q0 -133 -84 -225t-244 -92h-475v68q66 0 139 59v739q-69 60 -141 60zM338 111q66 -29 127 -29q100 0 159.5 59.5t59.5 154.5t-53 153.5t-162 58.5q-82 0 -131 -10v-387zM870 0 v68q66 0 140 59v739q-74 59 -140 60v67h428v-67q-72 0 -139 -60v-739q68 -59 139 -59v-68h-428z" />
<glyph unicode="&#x44c;" horiz-adv-x="870" d="M47 926v67h442v-67q-78 0 -151 -60v-288l194 4q47 0 96.5 -10.5t102.5 -37t87 -83t34 -134.5q0 -133 -84 -225t-244 -92h-475v68q66 0 139 59v739q-69 60 -141 60zM338 111q66 -29 127 -29q100 0 159.5 59.5t59.5 154.5t-53 153.5t-162 58.5q-82 0 -131 -10v-387z" />
<glyph unicode="&#x44d;" horiz-adv-x="845" d="M70 51q0 123 18 211h51q20 -106 54 -139q68 -47 157 -47q113 0 188.5 102.5t75.5 302.5q-199 -4 -366 -32v118l362 -10q-14 160 -85.5 260.5t-188.5 100.5q-96 0 -131 -25q-53 -70 -60 -164h-71v262h51q27 0 110.5 13.5t145.5 13.5q174 0 284.5 -138.5t110.5 -375.5 q0 -240 -117.5 -384.5t-300.5 -144.5q-167 0 -288 76z" />
<glyph unicode="&#x44e;" horiz-adv-x="1419" d="M47 0v68q66 0 139 59v739q-74 59 -139 60v67h418v-67q-76 -10 -129 -60v-282h192q27 201 139.5 317.5t274.5 116.5q172 0 291 -138.5t119 -365.5q0 -256 -109.5 -397.5t-314.5 -141.5q-188 0 -297 144.5t-109 365.5h-186v-358q53 -49 129 -59v-68h-418zM674 516 q0 -195 70.5 -317.5t205.5 -122.5q133 0 189.5 106.5t56.5 302.5q0 193 -73.5 313t-202.5 120q-246 -1 -246 -402z" />
<glyph unicode="&#x44f;" horiz-adv-x="927" d="M10 -18v55q53 27 91 59.5t71 98.5l109 208l57 50q-98 35 -155.5 106.5t-57.5 167.5q0 119 81 192.5t240 73.5h437v-67q-51 0 -123 -60v-739q72 -59 123 -59v-68h-389v68q61 8 116 59v303h-164l-172 -328q-63 -121 -178 -120h-86zM291 713q0 -82 49 -138.5t162 -56.5h108 v385h-118q-94 0 -147.5 -49t-53.5 -141z" />
<glyph unicode="&#x450;" horiz-adv-x="927" d="M258 1475h186l117 -305l-59 -33zM70 489q0 231 126 380t306 149q166 0 254 -106.5t71 -282.5l-24 -39l-570 -37q-2 -18 -2 -57q0 -172 93.5 -283t238.5 -111q66 0 119 21.5t139 71.5l29 -62q-158 -109 -215 -131q-68 -27 -156 -27q-180 0 -294.5 137t-114.5 377zM242 637 l430 43q0 133 -58.5 185.5t-128.5 52.5q-98 0 -165.5 -78t-77.5 -203z" />
<glyph unicode="&#x451;" horiz-adv-x="899" d="M70 489q0 -240 114.5 -377t294.5 -137q55 0 95 6.5t92.5 35t75 43l108.5 73.5l-29 62l-91 -50q-32 -16 -76 -29.5t-91 -13.5q-145 0 -238.5 111t-93.5 283q0 39 2 57l570 37l24 39q16 176 -71.5 282.5t-253.5 106.5q-180 0 -306 -149t-126 -380zM166 1321q0 45 27.5 75.5 t72.5 30.5q43 0 71 -30.5t28 -75.5q0 -47 -28 -78t-71 -31q-45 0 -72.5 31t-27.5 78zM242 637q10 125 77.5 203t165.5 78q70 0 128.5 -52.5t58.5 -185.5zM557 1321q0 45 27.5 75.5t72.5 30.5q43 0 72 -30.5t29 -75.5q0 -47 -29 -78t-72 -31q-45 0 -72.5 31t-27.5 78z" />
<glyph unicode="&#x452;" horiz-adv-x="1013" d="M47 893v100h170v326q-47 43 -141 43v61l274 68l15 -12v-486h516l-19 -100h-497v-236l141 93q27 18 135 18q180 0 257 -89t77 -314v-230q0 -205 -98.5 -295t-251.5 -65l14 258h33l90 -164q23 6 37 22.5t20 55.5t7 67.5t1 89.5v23v227q0 154 -58 224.5t-208 70.5 q-94 0 -196 -49v-473q70 -59 129 -59v-68h-416v68q66 0 139 59v766h-170z" />
<glyph unicode="&#x453;" horiz-adv-x="765" d="M47 0h438v68q-29 0 -74.5 16t-74.5 43v766h287q59 -86 59 -238h72v338h-707v-67q66 0 139 -60v-739q-74 -59 -139 -59v-68zM360 1096l117 305h187l-244 -338z" />
<glyph unicode="&#x454;" horiz-adv-x="864" d="M70 489q0 233 147.5 381t343.5 148q113 0 197 -37l-19 -244h-57q-18 119 -35 144q-25 37 -108 37q-131 0 -215 -90.5t-93 -270.5l371 10v-118q-178 29 -371 32q10 -168 108.5 -273.5t231.5 -105.5q20 0 41 4.5t36.5 9.5t37.5 17l34 19q11 6 37 22l36 23l34 -64l-118 -94 q-80 -63 -199 -64q-193 0 -316.5 138t-123.5 376z" />
<glyph unicode="&#x455;" horiz-adv-x="798" d="M90 72v227h62l38 -139q84 -84 195 -84q78 0 133 40t55 111q0 20 -4 39t-16 36l-19.5 28.5t-34 30t-37.5 25.5l-50 31l-52 32q-135 84 -198.5 155.5t-63.5 159.5q0 119 91.5 186.5t235.5 67.5t247 -80l14 -18q-4 -82 -33 -172h-57q-16 109 -41 131q-47 39 -147 39 q-74 0 -125.5 -29t-51.5 -86q0 -51 48.5 -95t177.5 -124q164 -98 214 -162t50 -164q0 -113 -103.5 -198t-248.5 -85q-94 0 -164 25t-94 47z" />
<glyph unicode="&#x456;" horiz-adv-x="518" d="M47 891q96 0 141 -45v-719q-74 -59 -139 -59v-68h430v68q-72 0 -141 59v879l-16 12l-275 -66v-61zM162 1360q0 47 27.5 77.5t72.5 30.5q43 0 71.5 -30.5t28.5 -77.5t-28.5 -78t-71.5 -31q-45 0 -72.5 31t-27.5 78z" />
<glyph unicode="&#x457;" horiz-adv-x="630" d="M59 1360q0 47 28 77.5t75 30.5q43 0 70.5 -30.5t27.5 -77.5t-27.5 -78t-70.5 -31q-47 0 -75 31t-28 78zM106 891q96 0 142 -45v-719q-74 -59 -139 -59v-68h430v68q-72 0 -142 59v879l-16 12l-275 -66v-61zM371 1360q0 47 28.5 77.5t73.5 30.5q43 0 70.5 -30.5t27.5 -77.5 t-27.5 -78t-70.5 -31q-45 0 -73.5 31t-28.5 78z" />
<glyph unicode="&#x458;" horiz-adv-x="499" d="M6 -358q100 78 143.5 176t43.5 254v774q-45 45 -142 45v61l275 66l16 -12v-934q0 -305 -309 -469zM152 1360q0 47 27.5 77.5t72.5 30.5t72.5 -30.5t27.5 -77.5t-27.5 -78t-72.5 -31t-72.5 31t-27.5 78z" />
<glyph unicode="&#x459;" horiz-adv-x="1374" d="M-14 23q-6 74 14 135h55q29 -29 74 -29q39 0 66.5 26.5t48.5 108.5q66 248 65 602q-74 59 -143 60v67h825v-67q-14 0 -27.5 -3t-31 -10.5t-27.5 -12.5t-32.5 -17.5t-32.5 -16.5v-288q131 4 194 4q49 0 97.5 -10.5t102.5 -37t88 -83t34 -134.5q0 -133 -85 -225t-245 -92 h-473v68q27 0 70 16t69 43v776h-172q-72 0 -96 -43q-6 -475 -93 -680t-222 -205q-80 1 -123 48zM840 127q53 -45 127 -45q102 0 160.5 59.5t58.5 154.5t-52.5 153.5t-162.5 58.5q-80 0 -131 -10v-371z" />
<glyph unicode="&#x45a;" horiz-adv-x="1413" d="M47 0v68q66 0 139 59v739q-74 59 -139 60v67h418v-67q-76 -10 -129 -60v-282h426v282q-53 49 -129 60v67h430v-67q-78 0 -152 -60v-288q123 4 185 4q47 0 93 -11.5t95 -39t80 -83t31 -131.5q0 -133 -75 -225t-245 -92h-442v68q76 10 129 59v358h-426v-358q53 -49 129 -59 v-68h-418zM911 111q66 -29 111 -29q100 0 151.5 57.5t51.5 157.5q0 211 -195 211q-70 0 -119 -10v-387z" />
<glyph unicode="&#x45b;" horiz-adv-x="1155" d="M47 893v100h170v326q-47 43 -141 43v61l274 68l15 -12v-486h516l-19 -100h-497v-236l141 93q27 18 135 18q178 0 256 -88t78 -305v-248q70 -59 141 -59v-68h-418v68q84 12 129 59v238q0 145 -58 214.5t-208 69.5q-94 0 -196 -49v-473q70 -59 129 -59v-68h-416v68 q66 0 139 59v766h-170z" />
<glyph unicode="&#x45c;" horiz-adv-x="985" d="M47 0h418v68q-76 10 -129 59v371q70 6 110.5 -5.5t63.5 -52.5q63 -106 215 -391q31 -57 94 -57h166v55q-57 8 -97 46t-79 112l-113 211q-35 70 -69.5 96.5t-112.5 36.5q61 27 113 90l196 244l119 43v67h-348v-63q61 -8 113 -47l-256 -326q-55 6 -115 4v305q53 49 129 60 v67h-418v-67q66 0 139 -60v-739q-74 -59 -139 -59v-68zM420 1096l117 305h186l-244 -338z" />
<glyph unicode="&#x45d;" horiz-adv-x="1091" d="M301 1475h186l117 -305l-59 -33zM47 0v68q66 0 139 59v739q-74 59 -139 60v67h418v-67q-76 -10 -129 -60v-540l-37 -160h4l469 827h272v-67q-66 0 -139 -60v-739q74 -59 139 -59v-68h-415v68q74 10 129 59v532l37 164h-7l-469 -823h-272z" />
<glyph unicode="&#x45e;" horiz-adv-x="980" d="M-70 926v67h416v-67q-70 -10 -115 -60l258 -602l27 -80l219 682q-41 47 -114 60v67h360v-67q-29 0 -71 -16.5t-66 -43.5l-269 -774l-24 -78q-94 -281 -117 -323q-39 -72 -106 -84q-27 -4 -66 -4h-90v92q102 16 158 61q31 20 51 60.5t42.5 113t27.5 84.5l-381 852 q-70 60 -140 60zM217 1346q0 74 53 131h80v-187q12 -12 53 -27.5t86 -15.5q98 0 140 43v187h67q68 -57 68 -131q0 -25 -6 -52.5t-15 -44.5l-6 -16q-70 -66 -248 -66q-80 0 -145 21.5t-90 44.5q-37 60 -37 113z" />
<glyph unicode="&#x45f;" horiz-adv-x="1083" d="M47 0v68q66 0 139 59v739q-74 59 -139 60v67h418v-67q-76 -10 -129 -60v-768h414v768q-53 49 -129 60v67h415v-67q-66 0 -139 -60v-739q63 -55 139 -55v-72h-448l22 -279h-135l21 279h-449z" />
<glyph unicode="&#x490;" horiz-adv-x="905" d="M80 0v72q74 0 149 63v1122q-74 61 -149 62v72h678q53 80 61 235h68v-336h-492v-1155q76 -63 166 -63v-72h-481z" />
<glyph unicode="&#x491;" horiz-adv-x="735" d="M47 0v68q66 0 139 59v739q-74 59 -139 60v67h549q53 76 59 238h72v-338h-391v-766q29 -27 75 -43t74 -16v-68h-438z" />
<glyph unicode="&#x4ae;" horiz-adv-x="1196" d="M20 1319v72h490v-72q-72 0 -145 -62l276 -546l289 546q-74 61 -148 62v72h406v-72q-70 0 -152 -62l-342 -671v-451q74 -63 148 -63v-72h-465v72q74 0 149 63v465l-348 657q-78 62 -158 62z" />
<glyph unicode="&#x4c0;" horiz-adv-x="702" d="M119 0v72q74 0 149 63v1120q-76 63 -149 64v72h465v-72q-74 0 -150 -64v-1120q76 -63 150 -63v-72h-465z" />
<glyph unicode="&#x4c1;" horiz-adv-x="1839" d="M645 1702q0 27 7.5 51.5t13.5 34.5l6 10h74q12 -139 153 -139q131 0 256 121l39 -17q-113 -231 -340 -231q-88 0 -148.5 44t-60.5 126zM31 -8v63q72 16 121 70.5t106 165.5l139 284q45 100 84 135t137 44q-63 27 -147 143l-248 354l-162 68v72h484v-72q-98 -12 -166 -68 l336 -489q74 8 127 6v489q-74 61 -164 62v72h483v-72q-88 0 -164 -64v-487q51 2 127 -6l336 489q-68 55 -166 68v72h484v-72l-160 -68l-250 -354q-82 -117 -145 -143q96 -8 135 -43t84 -136l139 -284q57 -111 106.5 -165t122.5 -71v-63h-184q-88 0 -129 82l-272 544 q-33 63 -83 77t-145 7v-567q76 -63 164 -63v-72h-483v72q88 0 164 63v567q-51 2 -93 1t-77 -21t-56 -64l-274 -544q-41 -82 -129 -82h-182z" />
<glyph unicode="&#x4c2;" horiz-adv-x="1390" d="M443 1305q0 29 7 53.5t13 34.5l6 10h74q8 -145 151 -145q123 0 218 127l38 -17q-113 -231 -286 -231q-88 0 -154.5 45t-66.5 123zM0 -8v55q102 12 176 158l107 205q35 70 65.5 99.5t81.5 39.5q-43 18 -98 90l-191 244l-116 43v67h346v-63q-53 -6 -105 -47l119 -163 q86 -120 121 -163q39 4 121 4v305q-55 49 -133 60v67h405v-67q-78 -10 -133 -60v-305q82 0 121 -4q35 43 122 164t119 162q-51 41 -106 47v63h346v-67l-117 -43l-190 -244q-55 -72 -100 -90q55 -10 83.5 -39t65.5 -100l107 -205q39 -74 78.5 -112t97.5 -46v-55h-168 q-66 0 -92 57l-201 389q-25 49 -61.5 58.5t-104.5 3.5v-373q55 -49 133 -59v-68h-405v68q78 10 133 59v373q-68 6 -105 -3.5t-61 -58.5l-201 -389q-29 -57 -94 -57h-166z" />
<glyph unicode="&#x4d0;" horiz-adv-x="1169" d="M333 1702q0 27 7.5 51.5t13.5 34.5l6 10h74q12 -139 153 -139q131 0 256 121l39 -17q-113 -231 -340 -231q-88 0 -148.5 44t-60.5 126zM-10 0v72q74 0 149 63l430 1278h76l385 -1278q76 -63 150 -63v-72h-463v72q96 12 145 63l-102 334h-406l-106 -334q59 -53 141 -63 v-72h-399zM383 567h344l-162 586l-20 -106z" />
<glyph unicode="&#x4d1;" horiz-adv-x="886" d="M172 1305q0 29 7 53.5t13 34.5l6 10h74q8 -145 151 -145q123 0 218 127l38 -17q-113 -231 -286 -231q-88 0 -154.5 45t-66.5 123zM59 247q0 118 70 210q225 72 451 57q0 2 2 61.5t2 90.5q0 250 -195 249q-90 0 -127 -45q-27 -33 -37 -149h-59q-41 102 -41 211l20 22 q133 61 283 62q162 0 235.5 -84t73.5 -277q0 -57 -9 -177t-10 -183.5t15 -169.5q45 -27 119 -23v-59l-152 -55q-115 0 -114 123h-6l-117 -95q-59 -33 -144 -32q-117 0 -188.5 72.5t-71.5 190.5zM223 266q0 -78 44 -121t122 -43q96 0 191 68v274q-203 6 -328 -61 q-29 -37 -29 -117z" />
<glyph unicode="&#x4d2;" horiz-adv-x="1169" d="M314 1643q0 45 27.5 75.5t72.5 30.5q43 0 71.5 -30.5t28.5 -75.5q0 -49 -28.5 -80t-71.5 -31q-45 0 -72.5 31t-27.5 80zM705 1643q0 45 27.5 75.5t72.5 30.5q43 0 72 -30.5t29 -75.5q0 -49 -29 -80t-72 -31q-45 0 -72.5 31t-27.5 80zM-10 0v72q74 0 149 63l430 1278h76 l385 -1278q76 -63 150 -63v-72h-463v72q96 12 145 63l-102 334h-406l-106 -334q59 -53 141 -63v-72h-399zM383 567h344l-162 586l-20 -106z" />
<glyph unicode="&#x4d3;" horiz-adv-x="886" d="M131 1245q0 47 27.5 77.5t72.5 30.5q43 0 71.5 -30.5t28.5 -77.5t-28.5 -78t-71.5 -31q-45 0 -72.5 31t-27.5 78zM522 1245q0 47 27.5 77.5t72.5 30.5q43 0 72 -30.5t29 -77.5t-29 -78t-72 -31q-45 0 -72.5 31t-27.5 78zM59 247q0 118 70 210q225 72 451 57q0 2 2 61.5 t2 90.5q0 250 -195 249q-90 0 -127 -45q-27 -33 -37 -149h-59q-41 102 -41 211l20 22q133 61 283 62q162 0 235.5 -84t73.5 -277q0 -57 -9 -177t-10 -183.5t15 -169.5q45 -27 119 -23v-59l-152 -55q-115 0 -114 123h-6l-117 -95q-59 -33 -144 -32q-117 0 -188.5 72.5 t-71.5 190.5zM223 266q0 -78 44 -121t122 -43q96 0 191 68v274q-203 6 -328 -61q-29 -37 -29 -117z" />
<glyph unicode="&#x4d4;" horiz-adv-x="1728" d="M-10 0v72q74 0 149 63l723 1256h723v-336h-80q0 55 -15 126.5t-46 108.5h-416v-528h299q35 39 53 156h80v-414h-80q-16 121 -53 158h-299v-533q63 -31 197 -31h215q72 78 119 238h79l-57 -336h-864v72q96 12 145 63v334h-403l-183 -334q59 -53 142 -63v-72h-428zM512 567 h350v678l-28 -80z" />
<glyph unicode="&#x4d5;" horiz-adv-x="1390" d="M49 247q0 118 70 210q180 76 450 98q0 2 2 41t2 70q0 250 -194 249q-88 0 -127 -45q-25 -33 -37 -149h-59q-41 102 -41 211l20 22q137 61 283 62q242 0 278 -178q45 90 124 135t173 45q166 0 254 -106.5t72 -282.5l-27 -39l-567 -78q-2 -16 -2 -68q0 -162 75.5 -252 t217.5 -90q63 0 117.5 13.5t87 30t90.5 49.5l30 -62q-160 -109 -215 -131q-68 -27 -157 -27q-231 0 -359 160l-157 -119q-59 -33 -144 -32q-117 0 -188.5 72.5t-71.5 190.5zM213 266q0 -78 44 -121t122 -43q86 0 190 76v307q-190 -29 -327 -102q-29 -37 -29 -117zM729 586 l432 94q0 133 -58.5 185.5t-127.5 52.5q-104 0 -175 -85t-71 -247z" />
<glyph unicode="&#x4d6;" horiz-adv-x="1093" d="M239 1702q0 27 7.5 51.5t13.5 34.5l6 10h74q12 -139 153 -139q131 0 256 121l39 -17q-113 -231 -340 -231q-88 0 -148.5 44t-60.5 126zM80 0v72q74 0 149 63v1122q-74 61 -149 62v72h872v-336h-80q0 55 -16 126.5t-45 108.5h-416v-528h299q35 39 54 156h79v-414h-79 q-16 121 -54 158h-299v-533q61 -31 197 -31h215q72 78 119 238h80l-58 -336h-868z" />
<glyph unicode="&#x4d7;" horiz-adv-x="927" d="M248 1305q0 29 7 53.5t13 34.5l6 10h74q8 -145 151 -145q123 0 218 127l38 -17q-113 -231 -286 -231q-88 0 -154.5 45t-66.5 123zM70 489q0 231 126 380t306 149q166 0 254 -106.5t71 -282.5l-24 -39l-570 -37q-2 -18 -2 -57q0 -172 93.5 -283t238.5 -111q66 0 119 21.5 t139 71.5l29 -62q-158 -109 -215 -131q-68 -27 -156 -27q-180 0 -294.5 137t-114.5 377zM242 637l430 43q0 133 -58.5 185.5t-128.5 52.5q-98 0 -165.5 -78t-77.5 -203z" />
<glyph unicode="&#x4dc;" horiz-adv-x="1839" d="M625 1643q0 45 27.5 75.5t72.5 30.5q43 0 71.5 -30.5t28.5 -75.5q0 -49 -28.5 -80t-71.5 -31q-45 0 -72.5 31t-27.5 80zM1016 1643q0 45 27.5 75.5t72.5 30.5q43 0 72 -30.5t29 -75.5q0 -49 -29 -80t-72 -31q-45 0 -72.5 31t-27.5 80zM31 -8v63q72 16 121 70.5t106 165.5 l139 284q45 100 84 135t137 44q-63 27 -147 143l-248 354l-162 68v72h484v-72q-98 -12 -166 -68l336 -489q74 8 127 6v489q-74 61 -164 62v72h483v-72q-88 0 -164 -64v-487q51 2 127 -6l336 489q-68 55 -166 68v72h484v-72l-160 -68l-250 -354q-82 -117 -145 -143 q96 -8 135 -43t84 -136l139 -284q57 -111 106.5 -165t122.5 -71v-63h-184q-88 0 -129 82l-272 544q-33 63 -83 77t-145 7v-567q76 -63 164 -63v-72h-483v72q88 0 164 63v567q-51 2 -93 1t-77 -21t-56 -64l-274 -544q-41 -82 -129 -82h-182z" />
<glyph unicode="&#x4dd;" horiz-adv-x="1390" d="M400 1245q0 47 27.5 77.5t72.5 30.5q43 0 71.5 -30.5t28.5 -77.5t-28.5 -78t-71.5 -31q-45 0 -72.5 31t-27.5 78zM791 1245q0 47 27.5 77.5t72.5 30.5q43 0 72 -30.5t29 -77.5t-29 -78t-72 -31q-45 0 -72.5 31t-27.5 78zM0 -8v55q102 12 176 158l107 205q35 70 65.5 99.5 t81.5 39.5q-43 18 -98 90l-191 244l-116 43v67h346v-63q-53 -6 -105 -47l119 -163q86 -120 121 -163q39 4 121 4v305q-55 49 -133 60v67h405v-67q-78 -10 -133 -60v-305q82 0 121 -4q35 43 122 164t119 162q-51 41 -106 47v63h346v-67l-117 -43l-190 -244q-55 -72 -100 -90 q55 -10 83.5 -39t65.5 -100l107 -205q39 -74 78.5 -112t97.5 -46v-55h-168q-66 0 -92 57l-201 389q-25 49 -61.5 58.5t-104.5 3.5v-373q55 -49 133 -59v-68h-405v68q78 10 133 59v373q-68 6 -105 -3.5t-61 -58.5l-201 -389q-29 -57 -94 -57h-166z" />
<glyph unicode="&#x4de;" horiz-adv-x="1069" d="M203 1643q0 45 27.5 75.5t72.5 30.5q43 0 71.5 -30.5t28.5 -75.5q0 -49 -28.5 -80t-71.5 -31q-45 0 -72.5 31t-27.5 80zM594 1643q0 45 27.5 75.5t72.5 30.5q43 0 72 -30.5t29 -75.5q0 -49 -29 -80t-72 -31q-45 0 -72.5 31t-27.5 80zM98 55q0 162 25 281h59 q31 -125 74 -178q57 -70 176 -70q365 0 365 318q0 139 -59.5 206.5t-155.5 67.5l-283 -35v127h113q322 0 321 295q0 96 -68.5 166t-172.5 70q-139 0 -209 -46q-68 -104 -68 -241h-88v364h59q35 2 137.5 12.5t174.5 10.5q209 0 306 -100.5t97 -247.5q0 -164 -86 -240 q-12 -10 -37.5 -23.5t-56.5 -24.5t-41 -17q14 -6 64.5 -18.5t66.5 -20.5q160 -90 160 -295q0 -193 -115 -317t-381 -124q-197 0 -356 58z" />
<glyph unicode="&#x4df;" horiz-adv-x="806" d="M82 1245q0 47 27.5 77.5t72.5 30.5q43 0 71.5 -30.5t28.5 -77.5t-28.5 -78t-71.5 -31q-45 0 -72.5 31t-27.5 78zM473 1245q0 47 27.5 77.5t72.5 30.5q43 0 72 -30.5t29 -77.5t-29 -78t-72 -31q-45 0 -72.5 31t-27.5 78zM55 33q0 119 19 203h53q39 -131 119 -162 q31 -12 67 -13q123 0 192.5 60.5t69.5 169.5q0 184 -176 184q-80 0 -161 -12v94h61q117 0 174 50t57 126q0 70 -32.5 115t-81.5 59q-35 10 -60 11q-145 0 -188 -76q-25 -43 -25 -135h-71v284h51q33 0 113.5 8.5t140.5 8.5q152 0 235.5 -65.5t83.5 -186.5q0 -63 -28.5 -108.5 t-62.5 -66t-95 -46.5q119 -35 177 -88.5t58 -147.5q0 -137 -97 -230.5t-304 -93.5q-160 0 -274 41z" />
<glyph unicode="&#x4e2;" d="M426 1531v97h530v-97h-530zM80 0v72q74 0 149 63v1122q-74 61 -149 62v72h465v-72q-74 0 -150 -64v-903l-22 -127l637 1166h295v-72q-76 0 -148 -62v-1122q74 -63 148 -63v-72h-480v72q88 0 164 63v881l23 145l-637 -1161h-295z" />
<glyph unicode="&#x4e3;" horiz-adv-x="1091" d="M281 1136v97h530v-97h-530zM47 0v68q66 0 139 59v739q-74 59 -139 60v67h418v-67q-76 -10 -129 -60v-540l-37 -160h4l469 827h272v-67q-66 0 -139 -60v-739q74 -59 139 -59v-68h-415v68q74 10 129 59v532l37 164h-7l-469 -823h-272z" />
<glyph unicode="&#x4e4;" d="M395 1643q0 45 27.5 75.5t72.5 30.5q43 0 71.5 -30.5t28.5 -75.5q0 -49 -28.5 -80t-71.5 -31q-45 0 -72.5 31t-27.5 80zM786 1643q0 45 27.5 75.5t72.5 30.5q43 0 72 -30.5t29 -75.5q0 -49 -29 -80t-72 -31q-45 0 -72.5 31t-27.5 80zM80 0v72q74 0 149 63v1122 q-74 61 -149 62v72h465v-72q-74 0 -150 -64v-903l-22 -127l637 1166h295v-72q-76 0 -148 -62v-1122q74 -63 148 -63v-72h-480v72q88 0 164 63v881l23 145l-637 -1161h-295z" />
<glyph unicode="&#x4e5;" horiz-adv-x="1091" d="M252 1245q0 47 27.5 77.5t72.5 30.5q43 0 71.5 -30.5t28.5 -77.5t-28.5 -78t-71.5 -31q-45 0 -72.5 31t-27.5 78zM643 1245q0 47 27.5 77.5t72.5 30.5q43 0 72 -30.5t29 -77.5t-29 -78t-72 -31q-45 0 -72.5 31t-27.5 78zM47 0v68q66 0 139 59v739q-74 59 -139 60v67h418 v-67q-76 -10 -129 -60v-540l-37 -160h4l469 827h272v-67q-66 0 -139 -60v-739q74 -59 139 -59v-68h-415v68q74 10 129 59v532l37 164h-7l-469 -823h-272z" />
<glyph unicode="&#x4e6;" horiz-adv-x="1400" d="M422 1643q0 45 27.5 75.5t72.5 30.5q43 0 71.5 -30.5t28.5 -75.5q0 -49 -28.5 -80t-71.5 -31q-45 0 -72.5 31t-27.5 80zM813 1643q0 45 27.5 75.5t72.5 30.5q43 0 72 -30.5t29 -75.5q0 -49 -29 -80t-72 -31q-45 0 -72.5 31t-27.5 80zM98 684q0 330 176.5 529.5 t442.5 199.5q254 0 420 -189.5t166 -504.5q0 -354 -157 -549t-458 -195q-283 0 -436.5 189.5t-153.5 519.5zM279 721q0 -289 118.5 -467t321.5 -178q209 0 307 165t98 437q0 289 -116.5 462t-323.5 173q-195 0 -300 -167t-105 -425z" />
<glyph unicode="&#x4e7;" horiz-adv-x="1062" d="M248 1245q0 47 27.5 77.5t72.5 30.5q43 0 71.5 -30.5t28.5 -77.5t-28.5 -78t-71.5 -31q-45 0 -72.5 31t-27.5 78zM639 1245q0 47 27.5 77.5t72.5 30.5q43 0 72 -30.5t29 -77.5t-29 -78t-72 -31q-45 0 -72.5 31t-27.5 78zM70 489q0 236 139 382.5t334 146.5 q186 0 319 -138.5t133 -365.5q0 -252 -125 -395.5t-348 -143.5q-209 0 -330.5 139t-121.5 375zM233 516q0 -186 88.5 -313t223.5 -127q285 0 284 409q0 188 -85 310.5t-224 122.5q-143 0 -215 -109t-72 -293z" />
<glyph unicode="&#x4ec;" horiz-adv-x="1138" d="M215 1643q0 45 27.5 75.5t72.5 30.5q43 0 71.5 -30.5t28.5 -75.5q0 -49 -28.5 -80t-71.5 -31q-45 0 -72.5 31t-27.5 80zM606 1643q0 45 27.5 75.5t72.5 30.5q43 0 72 -30.5t29 -75.5q0 -49 -29 -80t-72 -31q-45 0 -72.5 31t-27.5 80zM90 80q0 182 23 301h51q2 -10 6 -37 t6 -37t6 -33.5t7.5 -34l9.5 -28.5t11 -28.5t12 -20.5l14 -19q96 -68 231 -67q178 0 286.5 142t108.5 446q-297 -4 -534 -43v141l532 -17q-12 219 -88 358.5t-209 182.5q-49 14 -117 14q-137 0 -186 -34q-74 -102 -84 -248h-70v346h54q33 2 148.5 19.5t201.5 17.5 q248 0 389 -181.5t141 -521.5q0 -362 -145 -542.5t-418 -180.5q-217 1 -387 105z" />
<glyph unicode="&#x4ed;" horiz-adv-x="845" d="M86 1245q0 47 27.5 77.5t72.5 30.5q43 0 71.5 -30.5t28.5 -77.5t-28.5 -78t-71.5 -31q-45 0 -72.5 31t-27.5 78zM477 1245q0 47 27.5 77.5t72.5 30.5q43 0 72 -30.5t29 -77.5t-29 -78t-72 -31q-45 0 -72.5 31t-27.5 78zM70 51q0 123 18 211h51q20 -106 54 -139 q68 -47 157 -47q113 0 188.5 102.5t75.5 302.5q-199 -4 -366 -32v118l362 -10q-14 160 -85.5 260.5t-188.5 100.5q-96 0 -131 -25q-53 -70 -60 -164h-71v262h51q27 0 110.5 13.5t145.5 13.5q174 0 284.5 -138.5t110.5 -375.5q0 -240 -117.5 -384.5t-300.5 -144.5 q-167 0 -288 76z" />
<glyph unicode="&#x4ee;" horiz-adv-x="1222" d="M357 1531v97h530v-97h-530zM10 1315v76h486v-76q-76 0 -140 -64l346 -751l271 751q-70 63 -146 64v76h406v-76q-76 0 -150 -62l-358 -997q-59 -168 -114.5 -224.5t-151.5 -56.5q-119 0 -174 54q-8 74 20 196h64q37 -57 104 -57q59 0 92 31.5t64 128.5l-457 927 q-74 60 -162 60z" />
<glyph unicode="&#x4ef;" horiz-adv-x="970" d="M191 1136v97h530v-97h-530zM-70 926v67h416v-67q-70 -10 -115 -60l258 -602l27 -80l219 682q-41 47 -114 60v67h360v-67q-29 0 -71 -16.5t-66 -43.5l-269 -774l-24 -78q-94 -283 -127 -341t-70 -70h-182v92q102 16 158 61q23 16 42 50t30.5 64t25.5 77t23 67l-381 852 q-70 60 -140 60z" />
<glyph unicode="&#x4f0;" horiz-adv-x="1222" d="M328 1643q0 45 27.5 75.5t72.5 30.5q43 0 71.5 -30.5t28.5 -75.5q0 -49 -28.5 -80t-71.5 -31q-45 0 -72.5 31t-27.5 80zM719 1643q0 45 27.5 75.5t72.5 30.5q43 0 72 -30.5t29 -75.5q0 -49 -29 -80t-72 -31q-45 0 -72.5 31t-27.5 80zM10 1315v76h486v-76q-76 0 -140 -64 l346 -751l271 751q-70 63 -146 64v76h406v-76q-76 0 -150 -62l-358 -997q-59 -168 -114.5 -224.5t-151.5 -56.5q-119 0 -174 54q-8 74 20 196h64q37 -57 104 -57q59 0 92 31.5t64 128.5l-457 927q-74 60 -162 60z" />
<glyph unicode="&#x4f1;" horiz-adv-x="970" d="M162 1245q0 47 27.5 77.5t72.5 30.5q43 0 71.5 -30.5t28.5 -77.5t-28.5 -78t-71.5 -31q-45 0 -72.5 31t-27.5 78zM553 1245q0 47 27.5 77.5t72.5 30.5q43 0 72 -30.5t29 -77.5t-29 -78t-72 -31q-45 0 -72.5 31t-27.5 78zM-70 926v67h416v-67q-70 -10 -115 -60l258 -602 l27 -80l219 682q-41 47 -114 60v67h360v-67q-29 0 -71 -16.5t-66 -43.5l-269 -774l-24 -78q-94 -283 -127 -341t-70 -70h-182v92q102 16 158 61q23 16 42 50t30.5 64t25.5 77t23 67l-381 852q-70 60 -140 60z" />
<glyph unicode="&#x4f2;" horiz-adv-x="1222" d="M420 1565l116 305h178l-235 -338zM702 1565l197 305h180l-315 -338zM10 1315v76h486v-76q-76 0 -140 -64l346 -751l271 751q-70 63 -146 64v76h406v-76q-76 0 -150 -62l-358 -997q-59 -168 -114.5 -224.5t-151.5 -56.5q-119 0 -174 54q-8 74 20 196h64q37 -57 104 -57 q59 0 92 31.5t64 128.5l-457 927q-74 60 -162 60z" />
<glyph unicode="&#x4f3;" horiz-adv-x="970" d="M254 1170l116 305h178l-235 -338zM536 1170l197 305h180l-315 -338zM-70 926v67h416v-67q-70 -10 -115 -60l258 -602l27 -80l219 682q-41 47 -114 60v67h360v-67q-29 0 -71 -16.5t-66 -43.5l-269 -774l-24 -78q-94 -283 -127 -341t-70 -70h-182v92q102 16 158 61 q23 16 42 50t30.5 64t25.5 77t23 67l-381 852q-70 60 -140 60z" />
<glyph unicode="&#x4f4;" horiz-adv-x="1214" d="M268 1643q0 45 27.5 75.5t72.5 30.5q43 0 71.5 -30.5t28.5 -75.5q0 -49 -28.5 -80t-71.5 -31q-45 0 -72.5 31t-27.5 80zM659 1643q0 45 27.5 75.5t72.5 30.5q43 0 72 -30.5t29 -75.5q0 -49 -29 -80t-72 -31q-45 0 -72.5 31t-27.5 80zM-10 1319v72h459v-72 q-78 -6 -142 -64v-233q0 -156 61.5 -238t170.5 -82q113 0 282 35v518q-63 57 -141 64v72h457v-72q-74 0 -150 -64v-1120q76 -63 150 -63v-72h-482v72q90 0 166 63v541l-157 -72q-66 -29 -183 -29q-170 0 -255 100.5t-85 332.5v247q-75 64 -151 64z" />
<glyph unicode="&#x4f5;" horiz-adv-x="1013" d="M187 1245q0 47 27.5 77.5t72.5 30.5q43 0 71.5 -30.5t28.5 -77.5t-28.5 -78t-71.5 -31q-45 0 -72.5 31t-27.5 78zM578 1245q0 47 27.5 77.5t72.5 30.5q43 0 72 -30.5t29 -77.5t-29 -78t-72 -31q-45 0 -72.5 31t-27.5 78zM-4 926v67h418v-67q-76 -10 -129 -60v-137 q0 -217 164 -217q117 0 231 25v329q-53 49 -129 60v67h416v-67q-66 0 -140 -60v-739q74 -59 140 -59v-68h-441v68q29 0 76 16t78 43v330l-139 -43q-70 -20 -133 -21q-137 0 -205 79t-68 247v147q-73 60 -139 60z" />
<glyph unicode="&#x4f8;" horiz-adv-x="1556" d="M484 1643q0 45 27.5 75.5t72.5 30.5q43 0 71.5 -30.5t28.5 -75.5q0 -49 -28.5 -80t-71.5 -31q-45 0 -72.5 31t-27.5 80zM875 1643q0 45 27.5 75.5t72.5 30.5q43 0 72 -30.5t29 -75.5q0 -49 -29 -80t-72 -31q-45 0 -72.5 31t-27.5 80zM80 0v72q74 0 149 63v1122 q-74 61 -149 62v72h473v-72q-84 0 -158 -62v-466q197 16 320 -5q147 -25 222 -116.5t75 -231.5q0 -438 -418 -438h-514zM395 129q61 -31 176 -31q135 0 197.5 87t62.5 233q0 113 -68.5 194.5t-215.5 81.5q-61 0 -152 -20v-545zM1014 0v72q74 0 147 63v1120q-74 63 -147 64 v72h465v-72q-74 0 -150 -64v-1120q76 -63 150 -63v-72h-465z" />
<glyph unicode="&#x4f9;" horiz-adv-x="1345" d="M379 1245q0 47 27.5 77.5t72.5 30.5q43 0 71.5 -30.5t28.5 -77.5t-28.5 -78t-71.5 -31q-45 0 -72.5 31t-27.5 78zM770 1245q0 47 27.5 77.5t72.5 30.5q43 0 72 -30.5t29 -77.5t-29 -78t-72 -31q-45 0 -72.5 31t-27.5 78zM47 926v67h442v-67q-78 0 -151 -60v-288l194 4 q47 0 96.5 -10.5t102.5 -37t87 -83t34 -134.5q0 -133 -84 -225t-244 -92h-475v68q66 0 139 59v739q-69 60 -141 60zM338 111q66 -29 127 -29q100 0 159.5 59.5t59.5 154.5t-53 153.5t-162 58.5q-82 0 -131 -10v-387zM870 0v68q66 0 140 59v739q-74 59 -140 60v67h428v-67 q-72 0 -139 -60v-739q68 -59 139 -59v-68h-428z" />
<glyph unicode="&#x2000;" horiz-adv-x="993" />
<glyph unicode="&#x2001;" horiz-adv-x="1986" />
<glyph unicode="&#x2002;" horiz-adv-x="993" />
<glyph unicode="&#x2003;" horiz-adv-x="1986" />
<glyph unicode="&#x2004;" horiz-adv-x="661" />
<glyph unicode="&#x2005;" horiz-adv-x="495" />
<glyph unicode="&#x2006;" horiz-adv-x="329" />
<glyph unicode="&#x2007;" horiz-adv-x="1060" />
<glyph unicode="&#x2008;" horiz-adv-x="544" />
<glyph unicode="&#x2009;" horiz-adv-x="198" />
<glyph unicode="&#x200a;" horiz-adv-x="18" />
<glyph unicode="&#x200b;" horiz-adv-x="0" />
<glyph unicode="&#x200c;" horiz-adv-x="0" />
<glyph unicode="&#x200d;" horiz-adv-x="0" />
<glyph unicode="&#x200e;" horiz-adv-x="661" />
<glyph unicode="&#x200f;" horiz-adv-x="661" />
<glyph unicode="&#x2010;" horiz-adv-x="606" d="M31 528v119h547v-119h-547z" />
<glyph unicode="&#x2011;" horiz-adv-x="606" d="M31 528v119h547v-119h-547z" />
<glyph unicode="&#x2012;" horiz-adv-x="1060" d="M31 528v119h1001v-119h-1001z" />
<glyph unicode="&#x2013;" horiz-adv-x="1032" d="M129 528v119h766v-119h-766z" />
<glyph unicode="&#x2014;" horiz-adv-x="1282" d="M129 528v119h985v-119h-985z" />
<glyph unicode="&#x2015;" horiz-adv-x="3973" d="M31 528v119h3911v-119h-3911z" />
<glyph unicode="&#x2016;" horiz-adv-x="1138" d="M817 -496v1887h100v-1887h-100zM248 -496v1887h100v-1887h-100z" />
<glyph unicode="&#x2018;" horiz-adv-x="380" d="M80 1239q0 84 53 166t141 135l27 -43q-80 -82 -80 -154q0 -27 10 -45q6 -10 27 -29.5t31 -40t10 -46.5q0 -55 -51 -80q-18 -8 -49 -8q-119 0 -119 145z" />
<glyph unicode="&#x2019;" horiz-adv-x="380" d="M80 995q82 84 82 156q0 25 -12 43q-6 12 -27 30.5t-31 40t-10 46.5q0 55 51 80q20 10 49 10q119 0 119 -148q0 -84 -53 -164.5t-142 -134.5z" />
<glyph unicode="&#x201a;" horiz-adv-x="354" d="M37 -197q82 84 82 156q0 25 -13 43q-6 12 -25.5 30.5t-30.5 40t-11 46.5q0 55 53 80q18 10 49 10q119 0 119 -148q0 -84 -53 -164.5t-141 -134.5z" />
<glyph unicode="&#x201c;" horiz-adv-x="661" d="M80 1239q0 84 53 166t141 135l27 -43q-80 -82 -80 -154q0 -27 10 -45q6 -10 27 -29.5t31 -40t10 -46.5q0 -55 -51 -80q-18 -8 -49 -8q-119 0 -119 145zM362 1239q0 84 53.5 166t141.5 135l27 -43q-82 -82 -82 -154q0 -27 12 -45q6 -10 26.5 -29.5t31 -40t10.5 -46.5 q0 -55 -52 -80q-20 -8 -49 -8q-119 0 -119 145z" />
<glyph unicode="&#x201d;" horiz-adv-x="659" d="M80 995q82 84 82 156q0 25 -12 43q-6 12 -27 30.5t-31 40t-10 46.5q0 55 51 80q20 10 49 10q119 0 119 -148q0 -84 -53 -164.5t-142 -134.5zM358 995q80 84 80 156q0 25 -10 43q-6 12 -26.5 30.5t-31 40t-10.5 46.5q0 55 52 80q18 10 49 10q119 0 119 -148 q0 -84 -53.5 -164.5t-141.5 -134.5z" />
<glyph unicode="&#x201e;" horiz-adv-x="587" d="M37 -197q82 84 82 156q0 25 -13 43q-6 12 -25.5 30.5t-30.5 40t-11 46.5q0 55 53 80q18 10 49 10q119 0 119 -148q0 -84 -53 -164.5t-141 -134.5zM315 -197q82 84 82 156q0 25 -12 43q-6 12 -25.5 30.5t-31 40t-11.5 46.5q0 55 52 80q20 10 51 10q119 0 119 -148 q0 -84 -54.5 -164.5t-140.5 -134.5z" />
<glyph unicode="&#x2020;" horiz-adv-x="794" d="M8 762v43l119 57l231 -35l-43 226l41 143h80l41 -143l-43 -226l232 35l118 -57v-43l-118 -47l-232 47q0 -49 22.5 -105.5t41.5 -72.5l-70 -981h-61l-72 981q20 16 41.5 71.5t21.5 106.5l-231 -47z" />
<glyph unicode="&#x2021;" horiz-adv-x="798" d="M8 -6v41l119 49l231 -49q0 53 -21.5 108.5t-41.5 71.5l53 172l-53 197q20 16 41.5 71.5t21.5 106.5l-231 -47l-119 47v43l119 57l231 -35l-43 226l41 143h80l41 -143l-43 -226l232 35l118 -57v-43l-118 -47l-232 47q0 -49 22.5 -105.5t41.5 -72.5l-54 -197l54 -172 q-18 -16 -41 -72.5t-23 -107.5l232 49l118 -49v-41l-118 -57l-232 34l43 -225l-41 -143h-80l-41 143l43 225l-231 -34z" />
<glyph unicode="&#x2022;" horiz-adv-x="604" d="M84 664q0 98 62.5 165.5t160.5 67.5q96 0 157.5 -67.5t61.5 -165.5q0 -104 -60 -173t-159 -69q-98 0 -160.5 69t-62.5 173z" />
<glyph unicode="&#x2024;" horiz-adv-x="544" d="M160 113q0 53 31.5 86.5t82.5 33.5q49 0 81 -33.5t32 -86.5t-31.5 -89t-81.5 -36q-51 0 -82.5 36t-31.5 89z" />
<glyph unicode="&#x2025;" horiz-adv-x="1091" d="M707 113q0 53 31.5 86.5t82.5 33.5q49 0 81 -33.5t32 -86.5t-31.5 -89t-81.5 -36q-51 0 -82.5 36t-31.5 89zM160 113q0 53 31.5 86.5t82.5 33.5q49 0 81 -33.5t32 -86.5t-31.5 -89t-81.5 -36q-51 0 -82.5 36t-31.5 89z" />
<glyph unicode="&#x2026;" horiz-adv-x="1101" d="M98 102q0 49 30 80t77 31q45 0 73.5 -30.5t28.5 -80.5q0 -49 -28.5 -81.5t-73.5 -32.5q-47 0 -77 32.5t-30 81.5zM436 102q0 49 30 80t77 31q45 0 73.5 -30.5t28.5 -80.5q0 -49 -28.5 -81.5t-73.5 -32.5q-47 0 -77 32.5t-30 81.5zM795 102q0 49 28.5 80t75.5 31t76 -30.5 t29 -80.5q0 -49 -29 -81.5t-76 -32.5t-75.5 32.5t-28.5 81.5z" />
<glyph unicode="&#x202a;" horiz-adv-x="0" />
<glyph unicode="&#x202f;" horiz-adv-x="372" />
<glyph unicode="&#x2030;" horiz-adv-x="1925" d="M-16 1180q0 145 91 228t218 83q150 0 234.5 -80t84.5 -217q0 -154 -86 -235.5t-219 -81.5q-152 0 -237.5 80t-85.5 223zM43 41l903 1360l86 -45l-903 -1370zM123 1196q0 -109 48 -179.5t134 -70.5q168 0 168 230q0 115 -48 180t-134 65q-168 0 -168 -225zM571 344 q0 145 92.5 228t217.5 83q150 0 234.5 -79.5t84.5 -217.5q0 -154 -86 -236.5t-219 -82.5q-152 0 -238 81t-86 224zM711 360q0 -111 48 -181t134 -70q168 0 168 231q0 113 -48 178.5t-134 65.5q-168 -1 -168 -224zM1270 344q0 145 91 228t216 83q152 0 235.5 -79.5 t83.5 -217.5q0 -154 -85 -236.5t-218 -82.5q-154 0 -238.5 81t-84.5 224zM1409 360q0 -111 47 -181t135 -70q166 0 166 231q0 113 -47 178.5t-135 65.5q-166 -1 -166 -224z" />
<glyph unicode="&#x2032;" horiz-adv-x="167" d="M8 1352h152l-45 -375h-74z" />
<glyph unicode="&#x2033;" horiz-adv-x="335" d="M176 1352h152l-45 -375h-74zM8 1352h152l-45 -375h-74z" />
<glyph unicode="&#x2034;" horiz-adv-x="505" d="M346 1352h152l-45 -375h-74zM176 1352h152l-45 -375h-74zM8 1352h152l-45 -375h-74z" />
<glyph unicode="&#x2035;" horiz-adv-x="792" d="M260 1401h186l117 -305l-59 -33z" />
<glyph unicode="&#x2036;" horiz-adv-x="1585" d="M1053 1401h186l117 -305l-59 -33zM260 1401h186l117 -305l-59 -33z" />
<glyph unicode="&#x2037;" horiz-adv-x="2377" d="M1845 1401h186l117 -305l-59 -33zM1053 1401h186l117 -305l-59 -33zM260 1401h186l117 -305l-59 -33z" />
<glyph unicode="&#x2039;" horiz-adv-x="516" d="M10 555l406 408l55 -45l-250 -363l250 -365l-55 -49z" />
<glyph unicode="&#x203a;" horiz-adv-x="581" d="M119 190l250 365l-250 363l55 45l406 -408l-406 -414z" />
<glyph unicode="&#x203c;" horiz-adv-x="1126" d="M811 1370q31 20 102.5 20.5t110.5 -20.5l-70 -1077h-82zM813 98q0 45 27.5 76t74.5 31q43 0 71 -31t28 -76q0 -49 -28 -79.5t-71 -30.5q-47 0 -74.5 30.5t-27.5 79.5zM248 1370q31 20 102.5 20.5t110.5 -20.5l-70 -1077h-82zM250 98q0 45 27.5 76t74.5 31q43 0 71 -31 t28 -76q0 -49 -28 -79.5t-71 -30.5q-47 0 -74.5 30.5t-27.5 79.5z" />
<glyph unicode="&#x203e;" horiz-adv-x="475" d="M-266 118v97h530v-97h-530z" />
<glyph unicode="&#x2044;" horiz-adv-x="1257" d="M63 41l902 1360l88 -45l-903 -1370z" />
<glyph unicode="&#x2047;" horiz-adv-x="1671" d="M996 1274l8 26q12 10 35.5 25.5t98.5 40.5t155 25q150 0 247 -80t97 -240q0 -27 -4 -65q-12 -76 -53.5 -148t-90.5 -124t-98 -99t-82 -89t-33 -75l15 -96l-64 -51q-49 102 -49 243q0 53 30.5 107.5t62.5 88.5t95.5 91t83.5 78q86 92 86 166q0 86 -65.5 130t-145.5 44 q-141 0 -186 -47q-35 -37 -45 -185h-53q-29 89 -45 234zM1186 98q0 45 28 76t73 31t72.5 -31t27.5 -76q0 -49 -27.5 -79.5t-72.5 -30.5t-73 30.5t-28 79.5zM160 1274l8 26q12 10 35.5 25.5t98.5 40.5t155 25q150 0 247 -80t97 -240q0 -27 -4 -65q-12 -76 -53.5 -148 t-90.5 -124t-98 -99t-82 -89t-33 -75l15 -96l-64 -51q-49 102 -49 243q0 53 30.5 107.5t62.5 88.5t95.5 91t83.5 78q86 92 86 166q0 86 -65.5 130t-145.5 44q-141 0 -186 -47q-35 -37 -45 -185h-53q-29 89 -45 234zM350 98q0 45 28 76t73 31t72.5 -31t27.5 -76 q0 -49 -27.5 -79.5t-72.5 -30.5t-73 30.5t-28 79.5z" />
<glyph unicode="&#x2048;" horiz-adv-x="1398" d="M1084 1370q31 20 102.5 20.5t110.5 -20.5l-70 -1077h-82zM1086 98q0 45 27.5 76t74.5 31q43 0 71 -31t28 -76q0 -49 -28 -79.5t-71 -30.5q-47 0 -74.5 30.5t-27.5 79.5zM160 1274l8 26q12 10 35.5 25.5t98.5 40.5t155 25q150 0 247 -80t97 -240q0 -27 -4 -65 q-12 -76 -53.5 -148t-90.5 -124t-98 -99t-82 -89t-33 -75l15 -96l-64 -51q-49 102 -49 243q0 53 30.5 107.5t62.5 88.5t95.5 91t83.5 78q86 92 86 166q0 86 -65.5 130t-145.5 44q-141 0 -186 -47q-35 -37 -45 -185h-53q-29 89 -45 234zM350 98q0 45 28 76t73 31t72.5 -31 t27.5 -76q0 -49 -27.5 -79.5t-72.5 -30.5t-73 30.5t-28 79.5z" />
<glyph unicode="&#x2049;" horiz-adv-x="1398" d="M723 1274l8 26q12 10 35.5 25.5t98.5 40.5t155 25q150 0 247 -80t97 -240q0 -27 -4 -65q-12 -76 -53.5 -148t-90.5 -124t-98 -99t-82 -89t-33 -75l15 -96l-64 -51q-49 102 -49 243q0 53 30.5 107.5t62.5 88.5t95.5 91t83.5 78q86 92 86 166q0 86 -65.5 130t-145.5 44 q-141 0 -186 -47q-35 -37 -45 -185h-53q-29 89 -45 234zM913 98q0 45 28 76t73 31t72.5 -31t27.5 -76q0 -49 -27.5 -79.5t-72.5 -30.5t-73 30.5t-28 79.5zM248 1370q31 20 102.5 20.5t110.5 -20.5l-70 -1077h-82zM250 98q0 45 27.5 76t74.5 31q43 0 71 -31t28 -76 q0 -49 -28 -79.5t-71 -30.5q-47 0 -74.5 30.5t-27.5 79.5z" />
<glyph unicode="&#x2057;" horiz-adv-x="673" d="M514 1352h152l-45 -375h-74zM346 1352h152l-45 -375h-74zM176 1352h152l-45 -375h-74zM8 1352h152l-45 -375h-74z" />
<glyph unicode="&#x205f;" horiz-adv-x="466" />
<glyph unicode="&#x2060;" horiz-adv-x="0" />
<glyph unicode="&#x20a8;" horiz-adv-x="1986" d="M1276 72v227h62l38 -139q84 -84 195 -84q78 0 133 40t55 111q0 20 -4 39t-16 36l-19.5 28.5t-34 30t-37.5 25.5l-50 31l-52 32q-135 84 -198.5 155.5t-63.5 159.5q0 119 91.5 186.5t235.5 67.5t247 -80l14 -18q-4 -82 -33 -172h-57q-16 109 -41 131q-47 39 -147 39 q-74 0 -125.5 -29t-51.5 -86q0 -51 48.5 -95t177.5 -124q164 -98 214 -162t50 -164q0 -113 -103.5 -198t-248.5 -85q-94 0 -164 25t-94 47zM80 0v72q74 0 149 63v1122q-74 61 -149 62v72h219l256 10q227 0 341 -93.5t114 -269.5q0 -156 -88 -256t-236 -133q27 -18 72 -59 l231 -408q61 -104 168 -131v-63h-131q-129 0 -192 98q-39 63 -141.5 247.5t-176.5 295.5l-121 -13v-481q76 -63 150 -63v-72h-465zM395 711l121 14q313 37 313 283q0 141 -73.5 216.5t-202.5 75.5q-94 0 -158 -14v-575z" />
<glyph unicode="&#x20ac;" horiz-adv-x="1101" d="M-47 489v99h805l-29 -99h-430q39 -182 140.5 -284.5t258.5 -102.5q156 0 349 129l34 -65l-141 -113q-94 -78 -319 -78q-205 0 -337 133.5t-171 380.5h-160zM-47 705v100h162q49 244 207.5 381t382.5 137q219 0 321 -49l18 -25q4 -47 -10 -149.5t-33 -147.5h-61 q-25 174 -49 211q-16 27 -74.5 44.5t-126.5 17.5q-168 0 -272.5 -105.5t-128.5 -314.5h495l-26 -100h-805z" />
<glyph unicode="&#x2122;" horiz-adv-x="1908" d="M109 1100h63q0 125 53 200h164v-538q-23 -20 -65.5 -37.5t-67.5 -17.5v-62h401v62q-23 0 -67.5 17t-67.5 38v538h168q51 -76 51 -200h66v291h-698v-291zM836 645v62q57 0 127 55l20 514q-68 53 -125 53v62h279v-17l221 -510l223 502v25h274v-62q-57 0 -124 -53l26 -514 q70 -55 129 -55v-62h-377v62q51 0 115 53l-8 360l10 142h-10l-258 -588l-12 -39h-31l-10 39l-244 581h-6l6 -137l-17 -360q66 -51 115 -51v-62h-323z" />
<glyph unicode="&#xe000;" horiz-adv-x="995" d="M0 995h995v-995h-995v995z" />
<glyph horiz-adv-x="958" d="M162 1618q0 45 27.5 75.5t72.5 30.5q43 0 71.5 -30.5t28.5 -75.5q0 -49 -28.5 -80t-71.5 -31q-45 0 -72.5 31t-27.5 80zM553 1618q0 45 27.5 75.5t72.5 30.5q43 0 72 -30.5t29 -75.5q0 -49 -29 -80t-72 -31q-45 0 -72.5 31t-27.5 80z" />
<glyph horiz-adv-x="0" d="M442 1618q0 27 7.5 51.5t13.5 34.5l6 10h74q12 -139 153 -139q131 0 256 121l39 -17q-113 -231 -340 -231q-88 0 -148.5 44t-60.5 126z" />
</font>
</defs>
</svg>
